<?xml version="1.0" encoding="utf-8"?>
<!-- Generator: Adobe Illustrator 25.2.1, SVG Export Plug-In . SVG Version: 6.00 Build 0)  -->
<svg version="1.1" id="Layer_1" xmlns="http://www.w3.org/2000/svg" xmlns:xlink="http://www.w3.org/1999/xlink" x="0px" y="0px"
	 viewBox="0 0 1080 1080" style="enable-background:new 0 0 1080 1080;" xml:space="preserve">
<style type="text/css">
	.st0{fill:#4480BC;}
	.st1{clip-path:url(#SVGID_7_);fill:#7D97F4;}
	.st2{clip-path:url(#SVGID_8_);fill:#7D97F4;}
	.st3{clip-path:url(#SVGID_9_);fill:#7D97F4;}
	.st4{clip-path:url(#SVGID_10_);fill:#7D97F4;}
	.st5{clip-path:url(#SVGID_11_);fill:#7D97F4;}
	.st6{clip-path:url(#SVGID_12_);fill:#7D97F4;}
	.st7{clip-path:url(#SVGID_13_);fill:#7D97F4;}
	.st8{clip-path:url(#SVGID_14_);fill:#7D97F4;}
</style>
<g>
	<g>
		<rect x="123" y="264.53" class="st0" width="66.88" height="550.94"/>
		<rect x="229.18" y="264.53" class="st0" width="33.44" height="550.94"/>
		<rect x="542.28" y="264.53" class="st0" width="33.44" height="550.94"/>
		<rect x="801.53" y="264.53" class="st0" width="50.75" height="550.94"/>
		<rect x="889" y="264.53" class="st0" width="25.37" height="550.94"/>
		<rect x="290.08" y="264.53" class="st0" width="121.64" height="550.94"/>
		<rect x="594.97" y="264.53" class="st0" width="179.07" height="550.94"/>
		<rect x="452.79" y="264.53" class="st0" width="60.82" height="550.94"/>
	</g>
	<g>
		<defs>
			<rect id="SVGID_19_" x="229.18" y="264.53" width="33.44" height="550.94"/>
		</defs>
		<clipPath id="SVGID_7_">
			<use xlink:href="#SVGID_19_"  style="overflow:visible;"/>
		</clipPath>
		<path class="st1" d="M57.76,795.88c0,0,44.4-149.59,311-169.1c266.6-19.52,324.36-52.86,355.46-133.94s75.54-215.57,213.28-228.31
			c137.74-12.74,39.99,622.66,39.99,622.66H189.88L57.76,795.88z"/>
	</g>
	<g>
		<defs>
			<rect id="SVGID_6_" x="542.28" y="264.53" width="33.44" height="550.94"/>
		</defs>
		<clipPath id="SVGID_8_">
			<use xlink:href="#SVGID_6_"  style="overflow:visible;"/>
		</clipPath>
		<path class="st2" d="M57.76,795.88c0,0,44.4-149.59,311-169.1c266.6-19.52,324.36-52.86,355.46-133.94s75.54-215.57,213.28-228.31
			c137.74-12.74,39.99,622.66,39.99,622.66H189.88L57.76,795.88z"/>
	</g>
	<g>
		<defs>
			<rect id="SVGID_5_" x="801.53" y="264.53" width="50.75" height="550.94"/>
		</defs>
		<clipPath id="SVGID_9_">
			<use xlink:href="#SVGID_5_"  style="overflow:visible;"/>
		</clipPath>
		<path class="st3" d="M57.76,795.88c0,0,44.4-149.59,311-169.1c266.6-19.52,324.36-52.86,355.46-133.94s75.54-215.57,213.28-228.31
			c137.74-12.74,39.99,622.66,39.99,622.66H189.88L57.76,795.88z"/>
	</g>
	<g>
		<defs>
			<rect id="SVGID_4_" x="889" y="264.53" width="25.37" height="550.94"/>
		</defs>
		<clipPath id="SVGID_10_">
			<use xlink:href="#SVGID_4_"  style="overflow:visible;"/>
		</clipPath>
		<path class="st4" d="M57.76,795.88c0,0,44.4-149.59,311-169.1c266.6-19.52,324.36-52.86,355.46-133.94s75.54-215.57,213.28-228.31
			c137.74-12.74,39.99,622.66,39.99,622.66H189.88L57.76,795.88z"/>
	</g>
	<g>
		<defs>
			<rect id="SVGID_3_" x="290.08" y="264.53" width="121.64" height="550.94"/>
		</defs>
		<clipPath id="SVGID_11_">
			<use xlink:href="#SVGID_3_"  style="overflow:visible;"/>
		</clipPath>
		<path class="st5" d="M57.76,795.88c0,0,44.4-149.59,311-169.1c266.6-19.52,324.36-52.86,355.46-133.94s75.54-215.57,213.28-228.31
			c137.74-12.74,39.99,622.66,39.99,622.66H189.88L57.76,795.88z"/>
	</g>
	<g>
		<defs>
			<rect id="SVGID_2_" x="594.97" y="264.53" width="179.07" height="550.94"/>
		</defs>
		<clipPath id="SVGID_12_">
			<use xlink:href="#SVGID_2_"  style="overflow:visible;"/>
		</clipPath>
		<path class="st6" d="M57.76,795.88c0,0,44.4-149.59,311-169.1c266.6-19.52,324.36-52.86,355.46-133.94s75.54-215.57,213.28-228.31
			c137.74-12.74,39.99,622.66,39.99,622.66H189.88L57.76,795.88z"/>
	</g>
	<g>
		<defs>
			<rect id="SVGID_1_" x="452.79" y="264.53" width="60.82" height="550.94"/>
		</defs>
		<clipPath id="SVGID_13_">
			<use xlink:href="#SVGID_1_"  style="overflow:visible;"/>
		</clipPath>
		<path class="st7" d="M57.76,795.88c0,0,44.4-149.59,311-169.1c266.6-19.52,324.36-52.86,355.46-133.94s75.54-215.57,213.28-228.31
			c137.74-12.74,39.99,622.66,39.99,622.66H189.88L57.76,795.88z"/>
	</g>
	<g>
		<defs>
			<rect id="SVGID_17_" x="123" y="264.53" width="66.88" height="550.94"/>
		</defs>
		<clipPath id="SVGID_14_">
			<use xlink:href="#SVGID_17_"  style="overflow:visible;"/>
		</clipPath>
		<path class="st8" d="M57.76,795.88c0,0,44.4-149.59,311-169.1c266.6-19.52,324.36-52.86,355.46-133.94s75.54-215.57,213.28-228.31
			c137.74-12.74,39.99,622.66,39.99,622.66H189.88L57.76,795.88z"/>
	</g>
</g>
</svg>
