<?xml version="1.0" encoding="utf-8"?>
<!-- Generator: Adobe Illustrator 25.2.1, SVG Export Plug-In . SVG Version: 6.00 Build 0)  -->
<svg version="1.1" id="Layer_1" xmlns="http://www.w3.org/2000/svg" xmlns:xlink="http://www.w3.org/1999/xlink" x="0px" y="0px"
	 viewBox="0 0 1080 1080" style="enable-background:new 0 0 1080 1080;" xml:space="preserve">
<style type="text/css">
	.st0{fill:#8786D1;}
	.st1{fill:#45FF00;}
</style>
<g>
	<g>
		<path class="st0" d="M881.21,231.97h-398.9v29.68h398.9c40.72,0,73.85,33.13,73.85,73.85V730c0,40.72-33.13,73.85-73.85,73.85
			H198.79c-40.72,0-73.85-33.13-73.85-73.85V361.4l82.12-47.31c-14.75,0-26.71-11.96-26.71-26.71c0-12.28,8.3-22.61,19.59-25.73
			h112.61v-29.68H198.79c-57.09,0-103.53,46.45-103.53,103.53V730c0,57.09,46.45,103.53,103.53,103.53h682.43
			c57.09,0,103.53-46.45,103.53-103.53V335.5C984.75,278.41,938.3,231.97,881.21,231.97z"/>
	</g>
	<g>
		<polygon class="st1" points="397.43,598.79 562.26,399.7 456.59,399.7 456.59,84 338.27,84 338.27,399.7 232.6,399.7 		"/>
	</g>
	<path d="M338.27,84h118.32v315.7h105.67L397.43,598.79L232.6,399.7h105.67V84z"/>
	<g>
		<path class="st0" d="M829.76,312.11H482.32v61.87h79.94h0.01c14.21,0,25.72,11.52,25.72,25.73c0,6.37-2.32,12.2-6.15,16.69
			L417.25,615.2c-4.89,5.9-12.15,9.32-19.82,9.32c-7.66,0-14.93-3.42-19.82-9.32L212.79,416.11c-6.36-7.68-7.71-18.33-3.46-27.35
			c4.24-9.02,13.31-14.78,23.28-14.78h79.94v-61.87h-128.6c-48.98,0-88.69,39.71-88.69,88.69v394.51
			c0,48.98,39.71,88.69,88.69,88.69h645.82c48.98,0,88.69-39.71,88.69-88.69V632.68H791.81c-58.92,0-106.86-47.94-106.86-106.86
			s47.94-106.86,106.86-106.86h126.65V400.8C918.46,351.82,878.75,312.11,829.76,312.11z"/>
		<path class="st0" d="M714.63,525.83c0,42.56,34.62,77.18,77.18,77.18h126.65V448.65H791.81
			C749.25,448.65,714.63,483.27,714.63,525.83z M851.18,525.83c0,25.14-20.38,45.51-45.51,45.51c-25.14,0-45.51-20.38-45.51-45.51
			c0-25.14,20.38-45.51,45.51-45.51C830.8,480.31,851.18,500.69,851.18,525.83z"/>
	</g>
</g>
<g>
	<g>
		<polygon points="1434.71,227 1269.88,426.09 1375.55,426.09 1375.55,741.79 1493.87,741.79 1493.87,426.09 1599.54,426.09 		"/>
	</g>
	<g>
		<path class="st0" d="M1892.76,455.11h-373.17v286.68c0,14.21-11.52,25.73-25.73,25.73h-118.32c-14.21,0-25.73-11.52-25.73-25.73
			V455.11h-102.88c-48.98,0-88.69,39.71-88.69,88.69v394.51c0,48.98,39.71,88.69,88.69,88.69h645.82
			c48.98,0,88.69-39.71,88.69-88.69V775.68h-126.65c-58.92,0-106.86-47.94-106.86-106.86c0-58.92,47.94-106.86,106.86-106.86h126.65
			V543.8C1981.46,494.82,1941.75,455.11,1892.76,455.11z"/>
		<path class="st0" d="M1854.81,591.65c-42.56,0-77.18,34.62-77.18,77.18s34.62,77.18,77.18,77.18h126.65V591.65H1854.81z
			 M1868.66,714.34c-25.14,0-45.51-20.38-45.51-45.51s20.38-45.51,45.51-45.51c25.14,0,45.51,20.38,45.51,45.51
			S1893.8,714.34,1868.66,714.34z"/>
	</g>
	<g>
		<path class="st0" d="M1944.21,374.97h-353.61l24.57,29.68h329.03c40.72,0,73.85,33.13,73.85,73.85V873
			c0,40.72-33.13,73.85-73.85,73.85h-682.43c-40.72,0-73.85-33.13-73.85-73.85V504.4l82.12-47.31c-14.75,0-26.71-11.96-26.71-26.71
			c0-2.47,0.35-4.86,0.98-7.13c0.54-4.89,2.48-9.62,5.74-13.56l28.75-34.72h-17.02c-57.09,0-103.53,46.45-103.53,103.53V873
			c0,57.09,46.45,103.53,103.53,103.53h682.43c57.09,0,103.53-46.45,103.53-103.53V478.5
			C2047.75,421.41,2001.3,374.97,1944.21,374.97z"/>
	</g>
</g>
</svg>
