<?xml version="1.0" encoding="utf-8"?>
<!-- Generator: Adobe Illustrator 25.2.1, SVG Export Plug-In . SVG Version: 6.00 Build 0)  -->
<svg version="1.1" id="Layer_1" xmlns="http://www.w3.org/2000/svg" xmlns:xlink="http://www.w3.org/1999/xlink" x="0px" y="0px"
	 viewBox="0 0 1080 1080" style="enable-background:new 0 0 1080 1080;" xml:space="preserve">
<style type="text/css">
	.st0{fill:url(#SVGID_1_);}
	.st1{fill:url(#SVGID_2_);}
	.st2{fill:#7D97F4;}
	.st3{fill:url(#SVGID_3_);}
	.st4{opacity:0.8;fill:#FFFFFF;}
	.st5{fill:#FFFFFF;}
	.st6{opacity:0.83;fill:#7D97F4;}
</style>
<g>
	<linearGradient id="SVGID_1_" gradientUnits="userSpaceOnUse" x1="1050.3345" y1="-368.429" x2="912.1962" y2="-121.374">
		<stop  offset="0" style="stop-color:#4F52FF"/>
		<stop  offset="1" style="stop-color:#4042E2"/>
	</linearGradient>
	<path class="st0" d="M990.45,305.07L980.34,732.9l-1.57,66.54c0,8.65-7.09,16.02-15.74,16.02H112.35
		c-8.65,0-15.74-7.38-15.74-16.02l-0.96-66.39l-6.12-422.69c0-8.65,10.19-25.56,28.85-24.29l831.38-21.54
		c10.85-0.27,21.36,3.89,29.04,11.56C986.5,283.76,990.71,294.23,990.45,305.07z"/>
	<linearGradient id="SVGID_2_" gradientUnits="userSpaceOnUse" x1="734.5545" y1="173.0463" x2="970.9835" y2="-281.2166">
		<stop  offset="0" style="stop-color:#4F52FF"/>
		<stop  offset="1" style="stop-color:#4042E2"/>
	</linearGradient>
	<path class="st1" d="M957.97,785.77c0,8.07-6.74,14.67-14.99,14.67H132.62c-8.24,0-14.99-6.6-14.99-14.67l-6.74-456.21
		c0-8.07,9.7-23.81,27.48-22.63l791.98-20.08c10.34-0.26,20.34,3.64,27.66,10.79c7.32,7.15,11.33,16.93,11.09,27.05L957.97,785.77z"
		/>
	<path class="st2" d="M942.5,804.85h-93.35c-0.98,0-1.77-0.79-1.77-1.77s0.79-1.77,1.77-1.77h93.35c11.78,0,20-12.21,20-23.18
		V496.68c0-0.98,0.79-1.77,1.77-1.77s1.77,0.79,1.77,1.77v281.45C966.04,790.76,956.37,804.85,942.5,804.85z"/>
	<path class="st2" d="M112.37,494.9c-0.98,0-1.77-0.79-1.77-1.77V334.35c0-17.52,12.68-30.73,29.5-30.73h71.46
		c0.98,0,1.77,0.79,1.77,1.77c0,0.98-0.79,1.77-1.77,1.77H140.1c-14.8,0-25.95,11.69-25.95,27.18v158.78
		C114.14,494.11,113.35,494.9,112.37,494.9z"/>
	<g>
		<linearGradient id="SVGID_3_" gradientUnits="userSpaceOnUse" x1="546.4509" y1="410.3786" x2="202.5059" y2="541.2606">
			<stop  offset="0" style="stop-color:#FEBBBA"/>
			<stop  offset="1" style="stop-color:#FF928E"/>
		</linearGradient>
		<path class="st3" d="M312.5,485.85c0-8.69-7.05-15.74-15.74-15.74H193.64c-8.69,0-15.74,7.05-15.74,15.74v78.33
			c0,8.69,7.05,15.74,15.74,15.74h103.13c8.69,0,15.74-7.05,15.74-15.74V485.85z"/>
		<g>
			<path class="st4" d="M258.13,548.04h-31.17c-3.61,0-6.55-2.94-6.55-6.55v-27.63c0-3.61,2.94-6.55,6.55-6.55h31.17
				c3.61,0,6.55,2.94,6.55,6.55v27.63C264.69,545.1,261.75,548.04,258.13,548.04z M226.96,510.84c-1.66,0-3.01,1.35-3.01,3.01v27.63
				c0,1.66,1.35,3.01,3.01,3.01h31.17c1.66,0,3.01-1.35,3.01-3.01v-27.63c0-1.66-1.35-3.01-3.01-3.01H226.96z"/>
			<g>
				<path class="st5" d="M222.18,517.93H177.9c-0.98,0-1.77-0.79-1.77-1.77s0.79-1.77,1.77-1.77h44.28c0.98,0,1.77,0.79,1.77,1.77
					S223.16,517.93,222.18,517.93z"/>
				<path class="st5" d="M222.18,532.1H177.9c-0.98,0-1.77-0.79-1.77-1.77c0-0.98,0.79-1.77,1.77-1.77h44.28
					c0.98,0,1.77,0.79,1.77,1.77C223.95,531.3,223.16,532.1,222.18,532.1z"/>
			</g>
			<g>
				<path class="st5" d="M316.05,517.93h-49.59c-0.98,0-1.77-0.79-1.77-1.77s0.79-1.77,1.77-1.77h49.59c0.98,0,1.77,0.79,1.77,1.77
					S317.03,517.93,316.05,517.93z"/>
				<path class="st5" d="M316.05,532.1h-49.59c-0.98,0-1.77-0.79-1.77-1.77c0-0.98,0.79-1.77,1.77-1.77h49.59
					c0.98,0,1.77,0.79,1.77,1.77C317.82,531.3,317.03,532.1,316.05,532.1z"/>
			</g>
			<g>
				<g>
					<path class="st5" d="M232.75,513.38c-0.8,0-1.53-0.55-1.72-1.36l-9.26-39.11c-0.23-0.95,0.36-1.91,1.31-2.13
						c0.95-0.22,1.91,0.36,2.13,1.32l9.26,39.11c0.23,0.95-0.36,1.91-1.31,2.13C233.02,513.37,232.89,513.38,232.75,513.38z"/>
					<path class="st5" d="M257.79,513.38c-0.14,0-0.28-0.02-0.42-0.05c-0.95-0.23-1.53-1.19-1.3-2.14l9.6-39.11
						c0.23-0.95,1.2-1.53,2.14-1.3c0.95,0.23,1.53,1.19,1.3,2.14l-9.6,39.1C259.31,512.84,258.59,513.38,257.79,513.38z"/>
				</g>
				<g>
					<path class="st5" d="M223.49,586.45c-0.13,0-0.27-0.02-0.41-0.05c-0.95-0.23-1.54-1.18-1.31-2.13l9.26-39.1
						c0.22-0.95,1.18-1.54,2.13-1.32c0.95,0.23,1.54,1.18,1.31,2.13l-9.26,39.11C225.02,585.9,224.29,586.45,223.49,586.45z"/>
					<path class="st5" d="M267.4,586.45c-0.8,0-1.52-0.54-1.72-1.35l-9.6-39.11c-0.23-0.95,0.35-1.91,1.3-2.14
						c0.95-0.23,1.91,0.35,2.14,1.3l9.6,39.11c0.23,0.95-0.35,1.91-1.3,2.14C267.68,586.43,267.54,586.45,267.4,586.45z"/>
				</g>
			</g>
		</g>
	</g>
	<path class="st6" d="M317.82,369.95c0,10.32-8.37,18.69-18.69,18.69H180.65c-10.32,0-18.69-8.37-18.69-18.69v-1.59
		c0-10.32,8.37-18.69,18.69-18.69h118.48c10.32,0,18.69,8.37,18.69,18.69V369.95z"/>
	<g>
		<path class="st6" d="M326.67,650.61c0,9.86-8,17.86-17.86,17.86H179.82c-9.86,0-17.86-8-17.86-17.86v-1.47
			c0-9.86,8-17.86,17.86-17.86h128.99c9.86,0,17.86,8,17.86,17.86V650.61z"/>
		<path class="st6" d="M516.18,650.61c0,9.86-8,17.86-17.86,17.86H369.33c-9.86,0-17.86-8-17.86-17.86v-1.47
			c0-9.86,8-17.86,17.86-17.86h128.99c9.86,0,17.86,8,17.86,17.86V650.61z"/>
		<path class="st6" d="M702.15,650.61c0,9.86-8,17.86-17.86,17.86H555.29c-9.86,0-17.86-8-17.86-17.86v-1.47
			c0-9.86,8-17.86,17.86-17.86h128.99c9.86,0,17.86,8,17.86,17.86V650.61z"/>
		<path class="st6" d="M888.11,650.61c0,9.86-8,17.86-17.86,17.86H741.26c-9.86,0-17.86-8-17.86-17.86v-1.47
			c0-9.86,8-17.86,17.86-17.86h128.99c9.86,0,17.86,8,17.86,17.86V650.61z"/>
	</g>
	<g>
		<path class="st2" d="M452.42,727.56c0,7.47-6.05,13.52-13.52,13.52H194.97c-7.47,0-13.52-6.05-13.52-13.52v-1.29
			c0-7.47,6.05-13.52,13.52-13.52H438.9c7.47,0,13.52,6.05,13.52,13.52V727.56z"/>
		<path class="st2" d="M872.17,724.02c0,7.47-6.05,13.52-13.52,13.52H752.86c-7.47,0-13.52-6.05-13.52-13.52v-1.29
			c0-7.47,6.05-13.52,13.52-13.52h105.79c7.47,0,13.52,6.05,13.52,13.52V724.02z"/>
	</g>
</g>
</svg>
