<?xml version="1.0" encoding="utf-8"?>
<!-- Generator: Adobe Illustrator 25.2.1, SVG Export Plug-In . SVG Version: 6.00 Build 0)  -->
<svg version="1.1" id="Layer_1" xmlns="http://www.w3.org/2000/svg" xmlns:xlink="http://www.w3.org/1999/xlink" x="0px" y="0px"
	 viewBox="0 0 1080 1080" style="enable-background:new 0 0 1080 1080;" xml:space="preserve">
<style type="text/css">
	.st0{fill:url(#SVGID_1_);}
	.st1{fill:url(#SVGID_2_);}
	.st2{fill:url(#SVGID_3_);}
	.st3{fill:url(#SVGID_4_);}
	.st4{fill:url(#SVGID_5_);}
	.st5{opacity:0.3;fill:url(#SVGID_6_);}
</style>
<g>
	<linearGradient id="SVGID_1_" gradientUnits="userSpaceOnUse" x1="430.1968" y1="575.1505" x2="122.1958" y2="673.9973">
		<stop  offset="0" style="stop-color:#FCB148"/>
		<stop  offset="0.0521" style="stop-color:#FDBA46"/>
		<stop  offset="0.1424" style="stop-color:#FFC244"/>
		<stop  offset="0.3183" style="stop-color:#FFC444"/>
		<stop  offset="0.4849" style="stop-color:#FDB946"/>
		<stop  offset="0.7754" style="stop-color:#F99C4D"/>
		<stop  offset="0.8658" style="stop-color:#F8924F"/>
		<stop  offset="1" style="stop-color:#F8924F"/>
	</linearGradient>
	<path class="st0" d="M784.77,563.97c0,142.89-111.73,255.29-254.53,250.9c-148.61-4.56-273.6-132.91-273.6-286.51
		c0-153.59,124.99-265.09,273.6-249.61C673.04,293.62,784.77,421.09,784.77,563.97z"/>
	<linearGradient id="SVGID_2_" gradientUnits="userSpaceOnUse" x1="679.3515" y1="268.5663" x2="404.3871" y2="875.1891">
		<stop  offset="0" style="stop-color:#FFDB44"/>
		<stop  offset="1" style="stop-color:#FEEF06"/>
	</linearGradient>
	<path class="st1" d="M823.36,551.65c0,142.89-111.73,255.29-254.53,250.9c-148.61-4.56-273.6-132.91-273.6-286.51
		s124.99-265.09,273.6-249.61C711.63,281.3,823.36,408.77,823.36,551.65z"/>
	<linearGradient id="SVGID_3_" gradientUnits="userSpaceOnUse" x1="628.7717" y1="909.0937" x2="575.7167" y2="619.2563">
		<stop  offset="0" style="stop-color:#FCB148"/>
		<stop  offset="0.0521" style="stop-color:#FDBA46"/>
		<stop  offset="0.1424" style="stop-color:#FFC244"/>
		<stop  offset="0.3183" style="stop-color:#FFC444"/>
		<stop  offset="0.4849" style="stop-color:#FDB946"/>
		<stop  offset="0.7754" style="stop-color:#F99C4D"/>
		<stop  offset="0.8658" style="stop-color:#F8924F"/>
		<stop  offset="1" style="stop-color:#F8924F"/>
	</linearGradient>
	<path class="st2" d="M812.15,550.9c0,136.59-106.9,243.86-243.32,239.45c-141.71-4.59-260.69-127.08-260.69-273.42
		c0-146.35,118.98-252.79,260.69-238.27C705.25,292.62,812.15,414.31,812.15,550.9z"/>
	<linearGradient id="SVGID_4_" gradientUnits="userSpaceOnUse" x1="516.2852" y1="439.9598" x2="734.9318" y2="904.1047">
		<stop  offset="0" style="stop-color:#FCB148"/>
		<stop  offset="0.0521" style="stop-color:#FDBA46"/>
		<stop  offset="0.1424" style="stop-color:#FFC244"/>
		<stop  offset="0.3183" style="stop-color:#FFC444"/>
		<stop  offset="0.4849" style="stop-color:#FDB946"/>
		<stop  offset="0.7754" style="stop-color:#F99C4D"/>
		<stop  offset="0.8658" style="stop-color:#F8924F"/>
		<stop  offset="1" style="stop-color:#F8924F"/>
	</linearGradient>
	<path class="st3" d="M804.12,550.36c0,132.09-103.44,235.69-235.29,231.26c-136.79-4.59-251.5-122.9-251.5-264.08
		c0-141.19,114.71-244.02,251.5-230.17C700.68,300.72,804.12,418.27,804.12,550.36z"/>
	<linearGradient id="SVGID_5_" gradientUnits="userSpaceOnUse" x1="476.314" y1="530.6712" x2="675.967" y2="530.6712">
		<stop  offset="0" style="stop-color:#FFDB44"/>
		<stop  offset="1" style="stop-color:#FEEF06"/>
	</linearGradient>
	<path class="st4" d="M665.14,547.36c-7.26-8.67-18.54-14.97-33.92-18.9c7.07-2.69,13.09-5.88,18.09-9.56
		c4.98-3.67,9.04-7.69,12.21-12.08c3.15-4.38,5.46-9.08,6.93-14.13c1.47-5.04,2.2-10.28,2.2-15.73c0-10.01-1.6-19.1-4.8-27.31
		c-3.21-8.22-8.34-15.29-15.43-21.22c-7.12-5.95-16.36-10.71-27.75-14.28c-3.8-1.19-7.89-2.2-12.25-3.07v-39.82l-30.43-1.53v38.04
		l-25.72-0.99v-38.35l-31.52-1.58v38.72l-33.87-1.3l-12.57-0.48V425l12.57,0.4v214.91l-12.57,0.42v21.22l12.57-0.5l33.87-1.34v34.4
		l31.52-1.58v-34.06l25.72-1.02v33.79l30.43-1.53v-35.23c5.6-1.16,10.87-2.66,15.8-4.54c10.94-4.18,20.08-9.72,27.45-16.63
		c7.33-6.88,12.88-14.81,16.65-23.82c3.76-8.98,5.64-18.62,5.64-28.95C675.97,567.17,672.37,555.99,665.14,547.36z M616.66,482.8
		c0,6-0.89,10.96-2.68,14.9c-1.79,3.95-4.4,7.04-7.83,9.28c-3.44,2.25-7.62,3.81-12.56,4.69c-4.95,0.89-10.53,1.31-16.74,1.27
		l-29.59-0.16v-62.42l33.25,0.83c6.3,0.16,11.73,0.8,16.29,1.94c4.54,1.13,8.29,2.93,11.23,5.38c2.94,2.45,5.11,5.64,6.52,9.57
		C615.96,472.02,616.66,476.92,616.66,482.8z M621.37,592.32c-0.97,3.86-2.76,7.34-5.35,10.46c-2.6,3.12-6.22,5.7-10.85,7.74
		c-4.64,2.05-10.65,3.17-18.02,3.36l-39.88,1.04v-62.94l39.55-0.26c7.05-0.05,12.86,0.6,17.45,1.93c4.58,1.33,8.25,3.23,11.01,5.69
		c2.76,2.46,4.71,5.49,5.84,9.1c1.13,3.6,1.7,7.66,1.7,12.17C622.82,584.56,622.34,588.46,621.37,592.32z"/>
	<linearGradient id="SVGID_6_" gradientUnits="userSpaceOnUse" x1="451.96" y1="469.9969" x2="670.1653" y2="933.2053">
		<stop  offset="0" style="stop-color:#FCB148"/>
		<stop  offset="0.0521" style="stop-color:#FDBA46"/>
		<stop  offset="0.1424" style="stop-color:#FFC244"/>
		<stop  offset="0.3183" style="stop-color:#FFC444"/>
		<stop  offset="0.4849" style="stop-color:#FDB946"/>
		<stop  offset="0.7754" style="stop-color:#F99C4D"/>
		<stop  offset="0.8658" style="stop-color:#F8924F"/>
		<stop  offset="1" style="stop-color:#F8924F"/>
	</linearGradient>
	<path class="st5" d="M526.25,582.7c7.95-78.52,80.11-111.76,70.69-183.98c-5.8-44.51-39.54-82.03-77.18-111.32
		c-114.16,11.97-202.43,106.5-202.43,230.13c0,141.19,114.71,259.49,251.5,264.08c13.28,0.45,26.25-0.24,38.87-1.9
		C553.37,725.67,519.42,650.16,526.25,582.7z"/>
</g>
</svg>
