<?xml version="1.0" encoding="utf-8"?>
<!-- Generator: Adobe Illustrator 25.2.1, SVG Export Plug-In . SVG Version: 6.00 Build 0)  -->
<svg version="1.1" id="Layer_1" xmlns="http://www.w3.org/2000/svg" xmlns:xlink="http://www.w3.org/1999/xlink" x="0px" y="0px"
	 viewBox="0 0 3710 3710" style="enable-background:new 0 0 3710 3710;" xml:space="preserve">
<style type="text/css">
	.st0{opacity:0.75;fill:#F4F7FA;enable-background:new    ;}
	.st1{fill:url(#SVGID_1_);}
	.st2{fill:url(#SVGID_2_);}
	.st3{opacity:0.3;fill:url(#SVGID_3_);enable-background:new    ;}
	.st4{fill:url(#SVGID_4_);}
	.st5{opacity:0.3;fill:url(#SVGID_5_);enable-background:new    ;}
	.st6{fill:url(#SVGID_6_);}
	.st7{fill:url(#SVGID_7_);}
	.st8{fill:url(#SVGID_8_);}
	.st9{opacity:0.5;fill:#F4F7FA;enable-background:new    ;}
	.st10{fill:url(#SVGID_9_);}
	.st11{fill:url(#SVGID_10_);}
	.st12{opacity:0.44;fill:#F4F7FA;enable-background:new    ;}
	.st13{opacity:0.3;fill:url(#SVGID_11_);enable-background:new    ;}
	.st14{fill:#FFFFFF;}
</style>
<g id="Illustration">
	<g>
		<g>
			<g>
				<g>
					<path class="st0" d="M2930.24,1291.68c0-565.44-481.4-1023.82-1075.24-1023.82S779.76,726.24,779.76,1291.68
						c0,343.15,177.31,646.86,449.45,832.62c115.45,78.81,185.47,208.7,185.47,348.49v78.35c0,170.23,138,308.24,308.23,308.24
						h264.17c170.23,0,308.23-138,308.23-308.24v-78.35c0-139.78,70.02-269.68,185.47-348.49
						C2752.93,1938.54,2930.24,1634.83,2930.24,1291.68z"/>
					
						<linearGradient id="SVGID_1_" gradientUnits="userSpaceOnUse" x1="1832.6031" y1="214.9623" x2="1851.6991" y2="367.7321" gradientTransform="matrix(1 0 0 -1 0 3710)">
						<stop  offset="3.597000e-03" style="stop-color:#26264F"/>
						<stop  offset="1" style="stop-color:#444B8C"/>
					</linearGradient>
					<path class="st1" d="M2093.52,3315.86c0,69.74-106.79,126.28-238.52,126.28s-238.52-56.54-238.52-126.28
						s106.79-126.28,238.52-126.28S2093.52,3246.12,2093.52,3315.86z"/>
					
						<linearGradient id="SVGID_2_" gradientUnits="userSpaceOnUse" x1="1754.0663" y1="354.2012" x2="1945.0311" y2="697.9382" gradientTransform="matrix(1 0 0 -1 0 3710)">
						<stop  offset="3.597000e-03" style="stop-color:#26264F"/>
						<stop  offset="1" style="stop-color:#444B8C"/>
					</linearGradient>
					<path class="st2" d="M1538.1,3090.28v128.95c0,43.63,24.83,83.61,64.21,102.39c54.67,26.07,145.57,54.68,277.67,51.3
						c107.17-2.75,177.06-20.25,221.49-38.63c42.92-17.76,70.43-60.21,70.43-106.66v-71.35L1538.1,3090.28z"/>
					
						<linearGradient id="SVGID_3_" gradientUnits="userSpaceOnUse" x1="1538.1" y1="517.0917" x2="2171.9102" y2="517.0917" gradientTransform="matrix(1 0 0 -1 0 3710)">
						<stop  offset="3.597000e-03" style="stop-color:#26264F"/>
						<stop  offset="1" style="stop-color:#444B8C"/>
					</linearGradient>
					<path class="st3" d="M1538.1,3203.24c9.66,9.39,20.85,17.36,33.41,23.35c61.33,29.25,463.09,94.61,560,58.19
						c12.59-4.73,23.91-11.05,33.83-18.68c4.24-12.18,6.57-25.14,6.57-38.47v-71.35l-633.8-66v112.96H1538.1z"/>
					
						<linearGradient id="SVGID_4_" gradientUnits="userSpaceOnUse" x1="1772.2458" y1="448.1293" x2="1960.8235" y2="810.9612" gradientTransform="matrix(1 0 0 -1 0 3710)">
						<stop  offset="3.597000e-03" style="stop-color:#26264F"/>
						<stop  offset="1" style="stop-color:#444B8C"/>
					</linearGradient>
					<path class="st4" d="M1566.24,3002.54c-35.7-3.72-66.76,24.28-66.76,60.17v3.65c0,48.95,27.85,93.79,72.03,114.86
						c61.33,29.25,463.09,94.61,560,58.2c48.79-18.33,79.02-60.22,79.02-112.33v-2.94c0-30.99-23.41-56.96-54.23-60.17
						L1566.24,3002.54z"/>
					
						<linearGradient id="SVGID_5_" gradientUnits="userSpaceOnUse" x1="1509.71" y1="623.9166" x2="2200" y2="623.9166" gradientTransform="matrix(1 0 0 -1 0 3710)">
						<stop  offset="3.597000e-03" style="stop-color:#26264F"/>
						<stop  offset="1" style="stop-color:#444B8C"/>
					</linearGradient>
					<path class="st5" d="M2156.3,3063.98l-590.06-61.44c-23.28-2.42-44.53,8.69-56.53,26.63c11.85,27.93,33.44,51.29,61.81,64.82
						c61.33,29.25,480.2,103.13,560,65.53c31.06-14.64,55.43-39.35,68.48-69.39C2190.26,3075.87,2174.61,3065.89,2156.3,3063.98z"/>
					
						<linearGradient id="SVGID_6_" gradientUnits="userSpaceOnUse" x1="1499.48" y1="748.6417" x2="2210.53" y2="748.6417" gradientTransform="matrix(1 0 0 -1 0 3710)">
						<stop  offset="3.597000e-03" style="stop-color:#26264F"/>
						<stop  offset="1" style="stop-color:#444B8C"/>
					</linearGradient>
					<path class="st6" d="M1543.15,2793.61c-24.12,0-43.67,19.55-43.67,43.67v101c0,48.95,27.85,93.8,72.03,114.86
						c61.33,29.25,480.2,103.13,560,65.53c47.15-22.22,79.02-67.55,79.02-119.66v-161.73c0-24.12-19.56-43.67-43.67-43.67
						L1543.15,2793.61L1543.15,2793.61z"/>
					
						<linearGradient id="SVGID_7_" gradientUnits="userSpaceOnUse" x1="1837.3524" y1="802.2711" x2="1907.3724" y2="1130.0914" gradientTransform="matrix(1 0 0 -1 0 3710)">
						<stop  offset="3.597000e-03" style="stop-color:#26264F"/>
						<stop  offset="1" style="stop-color:#444B8C"/>
					</linearGradient>
					<path class="st7" d="M2201.74,2825.06c0,45.27-155.24,81.97-346.73,81.97s-346.73-36.7-346.73-81.97
						c0-45.28,155.24-81.98,346.73-81.98S2201.74,2779.78,2201.74,2825.06z"/>
					
						<linearGradient id="SVGID_8_" gradientUnits="userSpaceOnUse" x1="1702.8765" y1="2631.4749" x2="3092.0679" y2="425.9545" gradientTransform="matrix(1 0 0 -1 0 3710)">
						<stop  offset="0" style="stop-color:#FCB148"/>
						<stop  offset="0.0521" style="stop-color:#FDBA46"/>
						<stop  offset="0.1424" style="stop-color:#FFC244"/>
						<stop  offset="0.3183" style="stop-color:#FFC444"/>
						<stop  offset="0.4849" style="stop-color:#FDB946"/>
						<stop  offset="0.7754" style="stop-color:#F99C4D"/>
						<stop  offset="0.8658" style="stop-color:#F8924F"/>
						<stop  offset="1" style="stop-color:#F8924F"/>
					</linearGradient>
					<path class="st8" d="M2930.24,1291.68c0-565.44-481.4-1023.82-1075.24-1023.82S779.76,726.24,779.76,1291.68
						c0,343.15,177.31,646.86,449.45,832.62c115.45,78.81,185.47,208.7,185.47,348.49v78.35c0,170.23,138,308.24,308.23,308.24
						h264.17c170.23,0,308.23-138,308.23-308.24v-78.35c0-139.78,70.02-269.68,185.47-348.49
						C2752.93,1938.54,2930.24,1634.83,2930.24,1291.68z"/>
					<ellipse class="st9" cx="1855.01" cy="2760.41" rx="253.71" ry="59.98"/>
					<g>
						
							<linearGradient id="SVGID_9_" gradientUnits="userSpaceOnUse" x1="1541.0013" y1="937.273" x2="1718.6469" y2="1456.2363" gradientTransform="matrix(1 0 0 -1 0 3710)">
							<stop  offset="0.494" style="stop-color:#EBEFF2"/>
							<stop  offset="1" style="stop-color:#FFFFFF"/>
						</linearGradient>
						<path class="st10" d="M1788.89,2797.07c-7.27,0-13.57-5.4-14.53-12.8l-186.64-922.54c-1.03-8.03,4.64-15.38,12.68-16.41
							c8.05-1.08,15.38,4.64,16.41,12.67l186.64,922.55c1.03,8.03-4.64,15.38-12.67,16.41
							C1790.14,2797.04,1789.51,2797.07,1788.89,2797.07z"/>
						
							<linearGradient id="SVGID_10_" gradientUnits="userSpaceOnUse" x1="1815.0677" y1="854.097" x2="2001.4393" y2="1398.5531" gradientTransform="matrix(1 0 0 -1 0 3710)">
							<stop  offset="0.494" style="stop-color:#EBEFF2"/>
							<stop  offset="1" style="stop-color:#FFFFFF"/>
						</linearGradient>
						<path class="st11" d="M1904.82,2797.07c-0.62,0-1.26-0.03-1.89-0.12c-8.04-1.03-13.71-8.38-12.67-16.41l186.65-922.55
							c1.03-8.03,8.37-13.76,16.41-12.67c8.03,1.03,13.7,8.38,12.67,16.41l-186.65,922.54
							C1918.39,2791.67,1912.09,2797.07,1904.82,2797.07z"/>
					</g>
					<ellipse class="st12" cx="1872.2" cy="1331.6" rx="925.26" ry="892.32"/>
					
						<linearGradient id="SVGID_11_" gradientUnits="userSpaceOnUse" x1="1751.6306" y1="3128.6189" x2="1474.7318" y2="846.5945" gradientTransform="matrix(1 0 0 -1 0 3710)">
						<stop  offset="0" style="stop-color:#FCB148"/>
						<stop  offset="0.0521" style="stop-color:#FDBA46"/>
						<stop  offset="0.1424" style="stop-color:#FFC244"/>
						<stop  offset="0.3183" style="stop-color:#FFC444"/>
						<stop  offset="0.4849" style="stop-color:#FDB946"/>
						<stop  offset="0.7754" style="stop-color:#F99C4D"/>
						<stop  offset="0.8658" style="stop-color:#F8924F"/>
						<stop  offset="1" style="stop-color:#F8924F"/>
					</linearGradient>
					<path class="st13" d="M1874.52,2099.24c23.04-394.61,688.28-486.96,685.43-839.38c-1.75-217.05-266.11-378.24-322.55-410.53
						c-415.95-237.9-927.92,36.82-1033.65-157.61c-26.33-48.41-13.98-101.11-6.95-131.12c10.63-45.36,34.68-87.6,70.36-126.24
						C973.7,617.17,779.77,932.84,779.77,1291.68c0,343.15,177.31,646.86,449.45,832.62c115.45,78.81,185.47,208.7,185.47,348.49
						v78.35c0,170.23,138,308.24,308.23,308.24h264.17c170.23,0,308.23-138,308.23-308.24v-62.64
						c-36.36,27.86-78.11,47.29-123.9,46.92C2012.53,2534.11,1863.05,2295.61,1874.52,2099.24z"/>
				</g>
				<g>
					<path class="st14" d="M1952.98,1456.22c0-33.64-8.49-59.86-25.5-78.69c-17.07-18.89-47.18-36.56-90.54-53.05
						c-43.73-16.62-84.42-33.64-122.01-51.04c-37.86-17.52-70.68-38.05-98.37-61.58c-27.83-23.65-49.27-51.17-64.22-82.55
						c-15.01-31.45-22.52-69.57-22.52-114.3c0-74.82,26.73-135.8,79.79-182.58c52.57-46.34,121.88-71.68,207.3-76.3v-136.5
						l105.33,5.28v137.73c79.44,14.4,141.03,48.35,185.35,101.64c43.94,52.86,65.79,118.74,65.79,197.98l-215.82-2.03
						c0-44.27-8.7-78.46-26.13-102.66c-17.49-24.27-42.52-36.8-75.18-37.53c-29.3-0.66-52.18,7.8-68.51,25.39
						c-16.4,17.65-24.61,42.32-24.61,73.95c0,32.08,9.45,57.61,28.31,76.56c18.79,18.88,48.85,36.88,89.99,53.91
						c40.82,16.92,79.06,34.34,114.77,52.28c35.47,17.83,65.91,37.99,91.41,60.51c25.38,22.4,45.16,48.55,59.44,78.45
						c14.22,29.82,21.33,65.77,21.33,107.91c0,71.35-22.7,130.46-68.39,177.65c-46.1,47.6-109.52,77.42-190.88,89.28v128.92
						l-105.59,6.75v-130.84c-98.37-4.93-175.05-33.82-229.1-87.02c-54.6-53.72-82.09-126.76-82.09-218.72l234.18-5.36
						c0,49.58,11.44,86.96,34.25,112.04c22.7,24.99,54.82,36.67,96.15,35.15c30.01-1.11,53.52-10.63,70.58-28.53
						C1944.5,1510.47,1952.98,1486.46,1952.98,1456.22z"/>
				</g>
			</g>
		</g>
	</g>
</g>
</svg>
