<?xml version="1.0" encoding="utf-8"?>
<!-- Generator: Adobe Illustrator 25.2.1, SVG Export Plug-In . SVG Version: 6.00 Build 0)  -->
<svg version="1.1" id="Layer_1" xmlns="http://www.w3.org/2000/svg" xmlns:xlink="http://www.w3.org/1999/xlink" x="0px" y="0px"
	 viewBox="0 0 1080 1080" style="enable-background:new 0 0 1080 1080;" xml:space="preserve">
<style type="text/css">
	.st0{fill:#32BCAD;}
	.st1{clip-path:url(#path2376_1_);fill:#64DDC8;}
	.st2{clip-path:url(#path2380_1_);fill:#64DDC8;}
	.st3{clip-path:url(#path2384_1_);fill:#64DDC8;}
</style>
<g>
	<path id="path2376_3_" class="st0" d="M693.94,685.64c-21.59,0-41.85-8.3-57.13-23.58l-82.37-82.37c-5.65-5.65-15.94-5.65-21.59,0
		l-82.7,82.7c-15.28,15.28-35.54,23.58-57.13,23.58h-16.27l104.62,104.62c32.55,32.55,85.69,32.55,118.24,0l104.95-104.95
		L693.94,685.64L693.94,685.64z"/>
	<path id="path2380_3_" class="st0" d="M392.7,394.03c21.59,0,41.85,8.3,57.13,23.58l82.7,82.7c5.98,5.98,15.61,5.98,21.59,0
		l82.7-82.37c15.28-15.28,35.54-23.58,57.13-23.58h9.96L598.95,289.41c-32.55-32.55-85.69-32.55-118.24,0L376.1,394.03H392.7
		L392.7,394.03z"/>
	<path id="path2384_3_" class="st0" d="M790.59,481.05l-63.44-63.44c-1.33,0.66-2.99,1-4.65,1h-28.89
		c-14.95,0-29.56,5.98-39.86,16.61l-82.37,82.37c-7.64,7.64-17.93,11.62-27.9,11.62c-10.3,0-20.26-3.99-27.9-11.62l-82.7-82.7
		c-10.63-10.63-25.24-16.61-39.86-16.61H357.5c-1.66,0-2.99-0.33-4.32-1l-63.77,63.77c-32.55,32.55-32.55,85.69,0,118.24
		l63.44,63.44c1.33-0.66,2.66-1,4.32-1h35.54c14.95,0,29.56-5.98,39.86-16.61l82.7-82.7c14.95-14.95,41.18-14.95,56.13,0
		l82.37,82.37c10.63,10.63,25.24,16.61,39.86,16.61h28.89c1.66,0,2.99,0.33,4.65,1l63.44-63.44
		C823.14,566.4,823.14,513.6,790.59,481.05"/>
	<g>
		<defs>
			<path id="path2376_2_" d="M693.94,685.64c-21.59,0-41.85-8.3-57.13-23.58l-82.37-82.37c-5.65-5.65-15.94-5.65-21.59,0l-82.7,82.7
				c-15.28,15.28-35.54,23.58-57.13,23.58h-16.27l104.62,104.62c32.55,32.55,85.69,32.55,118.24,0l104.95-104.95L693.94,685.64
				L693.94,685.64z"/>
		</defs>
		<clipPath id="path2376_1_">
			<use xlink:href="#path2376_2_"  style="overflow:visible;"/>
		</clipPath>
		<path class="st1" d="M376.1,751.42c0,0,110.89-59.1,178.35-171.73s-24.31-161.58,30.73-250.26
			c55.04-88.68,204.88-152.9,204.88-152.9l152.9,364L777.83,895.14c0,0-333.31-30.58-336.37-39.75
			C438.4,846.21,376.1,751.42,376.1,751.42z"/>
	</g>
	<g>
		<defs>
			<path id="path2380_2_" d="M392.7,394.03c21.59,0,41.85,8.3,57.13,23.58l82.7,82.7c5.98,5.98,15.61,5.98,21.59,0l82.7-82.37
				c15.28-15.28,35.54-23.58,57.13-23.58h9.96L598.95,289.41c-32.55-32.55-85.69-32.55-118.24,0L376.1,394.03H392.7L392.7,394.03z"
				/>
		</defs>
		<clipPath id="path2380_1_">
			<use xlink:href="#path2380_2_"  style="overflow:visible;"/>
		</clipPath>
		<path class="st2" d="M376.1,751.42c0,0,110.89-59.1,178.35-171.73s-24.31-161.58,30.73-250.26
			c55.04-88.68,204.88-152.9,204.88-152.9l152.9,364L777.83,895.14c0,0-333.31-30.58-336.37-39.75
			C438.4,846.21,376.1,751.42,376.1,751.42z"/>
	</g>
	<g>
		<defs>
			<path id="path2384_2_" d="M790.59,481.05l-63.44-63.44c-1.33,0.66-2.99,1-4.65,1h-28.89c-14.95,0-29.56,5.98-39.86,16.61
				l-82.37,82.37c-7.64,7.64-17.93,11.62-27.9,11.62c-10.3,0-20.26-3.99-27.9-11.62l-82.7-82.7
				c-10.63-10.63-25.24-16.61-39.86-16.61H357.5c-1.66,0-2.99-0.33-4.32-1l-63.77,63.77c-32.55,32.55-32.55,85.69,0,118.24
				l63.44,63.44c1.33-0.66,2.66-1,4.32-1h35.54c14.95,0,29.56-5.98,39.86-16.61l82.7-82.7c14.95-14.95,41.18-14.95,56.13,0
				l82.37,82.37c10.63,10.63,25.24,16.61,39.86,16.61h28.89c1.66,0,2.99,0.33,4.65,1l63.44-63.44
				C823.14,566.4,823.14,513.6,790.59,481.05"/>
		</defs>
		<clipPath id="path2384_1_">
			<use xlink:href="#path2384_2_"  style="overflow:visible;"/>
		</clipPath>
		<path class="st3" d="M376.1,751.42c0,0,110.89-59.1,178.35-171.73s-24.31-161.58,30.73-250.26
			c55.04-88.68,204.88-152.9,204.88-152.9l152.9,364L777.83,895.14c0,0-333.31-30.58-336.37-39.75
			C438.4,846.21,376.1,751.42,376.1,751.42z"/>
	</g>
</g>
</svg>
