<?xml version="1.0" encoding="utf-8"?>
<!-- Generator: Adobe Illustrator 25.2.1, SVG Export Plug-In . SVG Version: 6.00 Build 0)  -->
<svg version="1.1" id="Layer_1" xmlns="http://www.w3.org/2000/svg" xmlns:xlink="http://www.w3.org/1999/xlink" x="0px" y="0px"
	 viewBox="0 0 1080 1080" style="enable-background:new 0 0 1080 1080;" xml:space="preserve">
<style type="text/css">
	.st0{fill:#8786D1;}
	.st1{fill:#45FF00;}
</style>
<g>
	<g>
		<path class="st0" d="M-310.79,435.97h-398.9v29.68h398.9c40.72,0,73.85,33.13,73.85,73.85V934c0,40.72-33.13,73.85-73.85,73.85
			h-682.43c-40.72,0-73.85-33.13-73.85-73.85V565.4l82.12-47.31c-14.75,0-26.71-11.96-26.71-26.71c0-12.28,8.3-22.61,19.59-25.73
			h112.61v-29.68h-113.76c-57.09,0-103.53,46.45-103.53,103.53V934c0,57.09,46.45,103.53,103.53,103.53h682.43
			c57.09,0,103.53-46.45,103.53-103.53V539.5C-207.25,482.41-253.7,435.97-310.79,435.97z"/>
	</g>
	<g>
		<polygon class="st1" points="-794.57,802.79 -629.74,603.7 -735.41,603.7 -735.41,288 -853.73,288 -853.73,603.7 -959.4,603.7 		
			"/>
	</g>
	<path d="M-853.73,288h118.32v315.7h105.67l-164.83,199.09L-959.4,603.7h105.67V288z"/>
	<g>
		<path class="st0" d="M-362.24,516.11h-347.45v61.87h79.94h0.01c14.21,0,25.72,11.52,25.72,25.73c0,6.37-2.32,12.2-6.15,16.69
			L-774.75,819.2c-4.89,5.9-12.15,9.32-19.82,9.32c-7.66,0-14.93-3.42-19.82-9.32l-164.83-199.09c-6.36-7.68-7.71-18.33-3.46-27.35
			c4.24-9.02,13.31-14.78,23.28-14.78h79.94v-61.87h-128.6c-48.98,0-88.69,39.71-88.69,88.69v394.51
			c0,48.98,39.71,88.69,88.69,88.69h645.82c48.98,0,88.69-39.71,88.69-88.69V836.68h-126.65c-58.92,0-106.86-47.94-106.86-106.86
			c0-58.92,47.94-106.86,106.86-106.86h126.65V604.8C-273.54,555.82-313.25,516.11-362.24,516.11z"/>
		<path class="st0" d="M-477.37,729.83c0,42.56,34.62,77.18,77.18,77.18h126.65V652.65h-126.65
			C-442.75,652.65-477.37,687.27-477.37,729.83z M-340.82,729.83c0,25.14-20.38,45.51-45.51,45.51c-25.14,0-45.51-20.38-45.51-45.51
			s20.38-45.51,45.51-45.51C-361.2,684.31-340.82,704.69-340.82,729.83z"/>
	</g>
</g>
<g>
	<g>
		<polygon points="371.71,140 206.88,339.09 312.55,339.09 312.55,654.79 430.87,654.79 430.87,339.09 536.54,339.09 		"/>
	</g>
	<g>
		<path class="st0" d="M829.76,368.11H456.59v286.68c0,14.21-11.52,25.73-25.73,25.73H312.55c-14.21,0-25.73-11.52-25.73-25.73
			V368.11H183.94c-48.98,0-88.69,39.71-88.69,88.69v394.51c0,48.98,39.71,88.69,88.69,88.69h645.82c48.98,0,88.69-39.71,88.69-88.69
			V688.68H791.81c-58.92,0-106.86-47.94-106.86-106.86c0-58.92,47.94-106.86,106.86-106.86h126.65V456.8
			C918.46,407.82,878.75,368.11,829.76,368.11z"/>
		<path class="st0" d="M791.81,504.65c-42.56,0-77.18,34.62-77.18,77.18S749.25,659,791.81,659h126.65V504.65H791.81z
			 M805.66,627.34c-25.14,0-45.51-20.38-45.51-45.51s20.38-45.51,45.51-45.51c25.14,0,45.51,20.38,45.51,45.51
			S830.8,627.34,805.66,627.34z"/>
	</g>
	<g>
		<path class="st0" d="M881.21,287.97H527.61l24.57,29.68h329.03c40.72,0,73.85,33.13,73.85,73.85V786
			c0,40.72-33.13,73.85-73.85,73.85H198.79c-40.72,0-73.85-33.13-73.85-73.85V417.4l82.12-47.31c-14.75,0-26.71-11.96-26.71-26.71
			c0-2.47,0.35-4.86,0.98-7.13c0.54-4.89,2.48-9.62,5.74-13.56l28.75-34.72h-17.02c-57.09,0-103.53,46.45-103.53,103.53V786
			c0,57.09,46.45,103.53,103.53,103.53h682.43c57.09,0,103.53-46.45,103.53-103.53V391.5C984.75,334.41,938.3,287.97,881.21,287.97z
			"/>
	</g>
</g>
</svg>
