<?xml version="1.0" encoding="utf-8"?>
<!-- Generator: Adobe Illustrator 25.2.1, SVG Export Plug-In . SVG Version: 6.00 Build 0)  -->
<svg version="1.1" id="Layer_1" xmlns="http://www.w3.org/2000/svg" xmlns:xlink="http://www.w3.org/1999/xlink" x="0px" y="0px"
	 viewBox="0 0 1080 1080" style="enable-background:new 0 0 1080 1080;" xml:space="preserve">
<style type="text/css">
	.st0{fill:#4D4DC1;}
	.st1{fill:#6C6ADD;}
	.st2{opacity:0.7;}
	.st3{fill:#FFFFFF;}
	.st4{fill:#FFBC00;}
</style>
<g>
	<path class="st0" d="M798.44,279.13c-10.08-9.62-23.78-14.71-37.7-14.07l-506.66,23.16l560.38,125.15v-97.35
		C814.47,302.08,808.51,288.75,798.44,279.13z"/>
	<path class="st1" d="M838.16,325.26v450.85c0,11.54-5.21,21.96-13.21,29.05c-6.84,6.09-16.01,9.84-25.88,9.84H264.64
		c-21.4,0-38.6-17.48-38.6-38.89V325.26c0-21.4,17.19-39.45,38.6-39.45h534.44C820.48,285.81,838.16,303.86,838.16,325.26z"/>
	<path class="st0" d="M824.79,805.16c-6.84,6.09-15.85,9.84-25.72,9.84H264.64c-21.4,0-38.6-17.48-38.6-38.89V325.26
		c0-21.4,17.19-39.45,38.6-39.45h5.9c1.3,11.85,3.22,25.16,5.06,37.94c0.26,1.78,0.51,3.69,0.76,5.4c2.13,14.75,4,26.88,4.37,28.45
		c12.28,51.09,30.63,110.06,76.39,140.84c70.66,47.55,166.34,45.4,244.77,74.32c52.29,19.28,106.06,44.49,146.47,83.73
		c29.69,28.84,53.97,63.65,66.57,103.29C819.5,774.14,822.72,789.5,824.79,805.16z"/>
	<g class="st2">
		<path class="st3" d="M755.74,791.3c-0.01,0-0.02,0-0.03,0h-19.2c-2.18,0-3.95-1.77-3.95-3.95c0-2.18,1.77-3.95,3.95-3.95h19.2
			c0.01,0,0.02,0,0.02,0c3.27,0,6.53-0.39,9.68-1.15c2.11-0.52,4.26,0.78,4.77,2.91c0.51,2.12-0.79,4.25-2.91,4.77
			C763.52,790.84,759.64,791.3,755.74,791.3z M706.58,791.3h-29.93c-2.18,0-3.95-1.77-3.95-3.95c0-2.18,1.77-3.95,3.95-3.95h29.93
			c2.18,0,3.95,1.77,3.95,3.95C710.53,789.54,708.77,791.3,706.58,791.3z M646.72,791.3h-29.93c-2.18,0-3.95-1.77-3.95-3.95
			c0-2.18,1.77-3.95,3.95-3.95h29.93c2.18,0,3.95,1.77,3.95,3.95C650.67,789.54,648.9,791.3,646.72,791.3z M586.85,791.3h-29.93
			c-2.18,0-3.95-1.77-3.95-3.95c0-2.18,1.77-3.95,3.95-3.95h29.93c2.18,0,3.95,1.77,3.95,3.95
			C590.8,789.54,589.03,791.3,586.85,791.3z M526.99,791.3h-29.93c-2.18,0-3.95-1.77-3.95-3.95c0-2.18,1.77-3.95,3.95-3.95h29.93
			c2.18,0,3.95,1.77,3.95,3.95C530.94,789.54,529.17,791.3,526.99,791.3z M467.12,791.3h-29.93c-2.18,0-3.95-1.77-3.95-3.95
			c0-2.18,1.77-3.95,3.95-3.95h29.93c2.18,0,3.95,1.77,3.95,3.95C471.07,789.54,469.3,791.3,467.12,791.3z M407.26,791.3h-29.93
			c-2.18,0-3.95-1.77-3.95-3.95c0-2.18,1.77-3.95,3.95-3.95h29.93c2.18,0,3.95,1.77,3.95,3.95
			C411.2,789.54,409.44,791.3,407.26,791.3z M347.39,791.3h-29.93c-2.18,0-3.95-1.77-3.95-3.95c0-2.18,1.77-3.95,3.95-3.95h29.93
			c2.18,0,3.95,1.77,3.95,3.95C351.34,789.54,349.57,791.3,347.39,791.3z M287.59,790.39c-0.26,0-0.53-0.03-0.8-0.08
			c-10.66-2.18-20.42-7.98-27.48-16.32c-1.41-1.66-1.2-4.16,0.46-5.57c1.67-1.41,4.16-1.2,5.57,0.46c5.92,7,14.1,11.86,23.03,13.69
			c2.14,0.44,3.51,2.52,3.08,4.66C291.07,789.11,289.43,790.39,287.59,790.39z M791.04,774.14c-0.86,0-1.72-0.28-2.44-0.85
			c-1.71-1.35-2.01-3.83-0.66-5.55c5.73-7.28,8.75-16.03,8.75-25.31c0-2.18,1.77-3.95,3.95-3.95s3.95,1.77,3.95,3.95
			c0,11.07-3.61,21.52-10.45,30.2C793.37,773.62,792.21,774.14,791.04,774.14z M251.74,747.86c-2.12,0-3.87-1.61-3.95-3.74
			c-0.02-0.58-0.03-1.1-0.03-1.69v-28.31c0-2.18,1.77-3.95,3.95-3.95c2.18,0,3.95,1.77,3.95,3.95v28.31c0,0.49,0.01,0.92,0.03,1.41
			c0.08,2.18-1.63,4.02-3.81,4.02C251.83,747.86,251.78,747.86,251.74,747.86z M800.65,731.27c-2.18,0-3.95-1.77-3.95-3.95v-29.93
			c0-2.18,1.77-3.95,3.95-3.95s3.95,1.77,3.95,3.95v29.93C804.59,729.51,802.83,731.27,800.65,731.27z M251.71,688.13
			c-2.18,0-3.95-1.77-3.95-3.95v-29.93c0-2.18,1.77-3.95,3.95-3.95c2.18,0,3.95,1.77,3.95,3.95v29.93
			C255.66,686.36,253.89,688.13,251.71,688.13z M800.65,671.41c-2.18,0-3.95-1.77-3.95-3.95v-29.93c0-2.18,1.77-3.95,3.95-3.95
			s3.95,1.77,3.95,3.95v29.93C804.59,669.64,802.83,671.41,800.65,671.41z M251.71,628.26c-2.18,0-3.95-1.77-3.95-3.95v-29.93
			c0-2.18,1.77-3.95,3.95-3.95c2.18,0,3.95,1.77,3.95,3.95v29.93C255.66,626.5,253.89,628.26,251.71,628.26z M800.65,611.54
			c-2.18,0-3.95-1.77-3.95-3.95v-29.93c0-2.18,1.77-3.95,3.95-3.95s3.95,1.77,3.95,3.95v29.93
			C804.59,609.77,802.83,611.54,800.65,611.54z M251.71,568.4c-2.18,0-3.95-1.77-3.95-3.95v-29.93c0-2.18,1.77-3.95,3.95-3.95
			c2.18,0,3.95,1.77,3.95,3.95v29.93C255.66,566.63,253.89,568.4,251.71,568.4z M800.65,551.68c-2.18,0-3.95-1.77-3.95-3.95v-29.93
			c0-2.18,1.77-3.95,3.95-3.95s3.95,1.77,3.95,3.95v29.93C804.59,549.91,802.83,551.68,800.65,551.68z M251.71,508.53
			c-2.18,0-3.95-1.77-3.95-3.95v-29.93c0-2.18,1.77-3.95,3.95-3.95c2.18,0,3.95,1.77,3.95,3.95v29.93
			C255.66,506.76,253.89,508.53,251.71,508.53z M800.65,491.81c-2.18,0-3.95-1.77-3.95-3.95v-29.93c0-2.18,1.77-3.95,3.95-3.95
			s3.95,1.77,3.95,3.95v29.93C804.59,490.04,802.83,491.81,800.65,491.81z M251.71,448.67c-2.18,0-3.95-1.77-3.95-3.95v-29.93
			c0-2.18,1.77-3.95,3.95-3.95c2.18,0,3.95,1.77,3.95,3.95v29.93C255.66,446.9,253.89,448.67,251.71,448.67z M800.65,431.94
			c-2.18,0-3.95-1.77-3.95-3.95v-29.93c0-2.18,1.77-3.95,3.95-3.95s3.95,1.77,3.95,3.95v29.93
			C804.59,430.18,802.83,431.94,800.65,431.94z M251.71,388.8c-2.18,0-3.95-1.77-3.95-3.95v-22.52c0-2.69,0.22-5.39,0.66-8.02
			c0.36-2.15,2.39-3.59,4.54-3.25c2.15,0.36,3.61,2.39,3.25,4.54c-0.37,2.21-0.55,4.47-0.55,6.73v22.52
			C255.66,387.03,253.89,388.8,251.71,388.8z M800.65,372.08c-2.18,0-3.95-1.77-3.95-3.95v-5.8c0-7.4-1.99-14.65-5.76-20.96
			c-1.12-1.87-0.51-4.3,1.37-5.41c1.88-1.12,4.3-0.5,5.41,1.37c4.49,7.54,6.87,16.18,6.87,25.01v5.8
			C804.59,370.31,802.83,372.08,800.65,372.08z M266.35,333.1c-1.07,0-2.14-0.43-2.92-1.29c-1.47-1.61-1.36-4.11,0.25-5.58
			c8.06-7.36,18.48-11.86,29.35-12.65c2.17-0.12,4.07,1.48,4.23,3.65c0.16,2.18-1.48,4.07-3.65,4.23c-9.1,0.66-17.84,4.43-24.6,10.6
			C268.25,332.76,267.3,333.1,266.35,333.1z M771.88,324.35c-0.47,0-0.95-0.09-1.42-0.27c-4.7-1.81-9.66-2.73-14.74-2.73h-13.41
			c-2.18,0-3.95-1.77-3.95-3.95c0-2.18,1.77-3.95,3.95-3.95h13.41c6.05,0,11.97,1.1,17.58,3.26c2.04,0.78,3.05,3.07,2.27,5.1
			C774.96,323.39,773.46,324.35,771.88,324.35z M712.38,321.35h-29.93c-2.18,0-3.95-1.77-3.95-3.95c0-2.18,1.77-3.95,3.95-3.95
			h29.93c2.18,0,3.95,1.77,3.95,3.95C716.33,319.58,714.56,321.35,712.38,321.35z M652.51,321.35h-29.93
			c-2.18,0-3.95-1.77-3.95-3.95c0-2.18,1.77-3.95,3.95-3.95h29.93c2.18,0,3.95,1.77,3.95,3.95
			C656.46,319.58,654.69,321.35,652.51,321.35z M592.65,321.35h-29.93c-2.18,0-3.95-1.77-3.95-3.95c0-2.18,1.77-3.95,3.95-3.95
			h29.93c2.18,0,3.95,1.77,3.95,3.95C596.6,319.58,594.83,321.35,592.65,321.35z M532.78,321.35h-29.93c-2.18,0-3.95-1.77-3.95-3.95
			c0-2.18,1.77-3.95,3.95-3.95h29.93c2.18,0,3.95,1.77,3.95,3.95C536.73,319.58,534.96,321.35,532.78,321.35z M472.91,321.35h-29.93
			c-2.18,0-3.95-1.77-3.95-3.95c0-2.18,1.77-3.95,3.95-3.95h29.93c2.18,0,3.95,1.77,3.95,3.95
			C476.86,319.58,475.1,321.35,472.91,321.35z M413.05,321.35h-29.93c-2.18,0-3.95-1.77-3.95-3.95c0-2.18,1.77-3.95,3.95-3.95h29.93
			c2.18,0,3.95,1.77,3.95,3.95C417,319.58,415.23,321.35,413.05,321.35z M353.18,321.35h-29.93c-2.18,0-3.95-1.77-3.95-3.95
			c0-2.18,1.77-3.95,3.95-3.95h29.93c2.18,0,3.95,1.77,3.95,3.95C357.13,319.58,355.36,321.35,353.18,321.35z"/>
	</g>
	<path class="st0" d="M848.87,450.68c-3.28-2.28-7.4-2.82-11.15-1.43l-117.39,43.36c-16.72,6.2-28.29,22.15-28.29,39.99v47.34
		c0,18.93,12.99,35.6,31.16,40.93l115.15,33.69c3.69,1.08,7.66,0.36,10.74-1.94c3.08-2.31,4.87-5.93,4.87-9.78V460.7
		C853.96,456.7,852.15,452.96,848.87,450.68z"/>
	<circle class="st4" cx="740.08" cy="555.16" r="23.88"/>
</g>
</svg>
