<?xml version="1.0" encoding="utf-8"?>
<!-- Generator: Adobe Illustrator 25.2.1, SVG Export Plug-In . SVG Version: 6.00 Build 0)  -->
<svg version="1.1" xmlns="http://www.w3.org/2000/svg" xmlns:xlink="http://www.w3.org/1999/xlink" x="0px" y="0px"
	 viewBox="0 0 3710 3710" style="enable-background:new 0 0 3710 3710;" xml:space="preserve">
<style type="text/css">
	.st0{fill:#F4F7FA;}
	.st1{fill:url(#SVGID_1_);}
	.st2{fill:url(#SVGID_2_);}
	.st3{fill:url(#SVGID_3_);}
	.st4{opacity:0.71;fill:#FFFFFF;}
	.st5{fill:#FFFFFF;}
	.st6{fill:#26264F;}
	.st7{fill:url(#SVGID_4_);}
	.st8{fill:url(#SVGID_5_);}
	.st9{opacity:0.48;fill:#FFFFFF;}
	.st10{fill:url(#SVGID_6_);}
	.st11{fill:url(#SVGID_7_);}
	.st12{fill:url(#SVGID_8_);}
	.st13{opacity:0.71;}
	.st14{fill:url(#SVGID_9_);}
	.st15{fill:url(#SVGID_10_);}
	.st16{fill:url(#SVGID_11_);}
	.st17{fill:url(#SVGID_12_);}
	.st18{fill:url(#SVGID_13_);}
	.st19{fill:url(#SVGID_14_);}
	.st20{opacity:0.3;fill:url(#SVGID_15_);}
	.st21{fill:url(#SVGID_16_);}
	.st22{fill:url(#SVGID_17_);}
	.st23{fill:url(#SVGID_18_);}
	.st24{fill:url(#SVGID_19_);}
	.st25{opacity:0.3;fill:url(#SVGID_20_);}
	.st26{fill:url(#SVGID_21_);}
	.st27{fill:url(#SVGID_22_);}
	.st28{fill:url(#SVGID_23_);}
	.st29{fill:url(#SVGID_24_);}
	.st30{opacity:0.3;}
	.st31{opacity:0.3;fill:url(#SVGID_25_);}
	.st32{fill:url(#SVGID_26_);}
	.st33{fill:url(#SVGID_27_);}
	.st34{fill:url(#SVGID_28_);}
	.st35{fill:url(#SVGID_29_);}
	.st36{fill:url(#SVGID_30_);}
	.st37{opacity:0.3;fill:url(#SVGID_31_);}
</style>
<g id="Background">
</g>
<g id="Illustration">
	<g>
		<path class="st0" d="M1898.35,498.23c-303.23,122-332.28,433.85-605.3,460.61c-237.9,23.32-328.32-202.42-495.25-161.97
			c-254.28,61.61-414.14,675-312.02,1179.36c105.45,520.78,548.5,1213.1,1282.51,1260.35
			c824.08,53.04,1447.62-743.53,1485.69-1442.56c4.12-75.6,28.43-709.01-450.17-1083.19
			C2779.89,692.12,2308.27,333.31,1898.35,498.23z"/>
		<g>
			<g>
				<linearGradient id="SVGID_1_" gradientUnits="userSpaceOnUse" x1="511.4166" y1="2225.897" x2="2690.0039" y2="2225.897">
					<stop  offset="0" style="stop-color:#FF9085"/>
					<stop  offset="1" style="stop-color:#FB6FBB"/>
				</linearGradient>
				<path class="st1" d="M511.42,1696.53v1000.21c0,33.21,28.12,59.53,62.76,58.8l2058.23-43.54c31.83-0.67,57.6-26.97,57.6-58.75
					v-957L511.42,1696.53z"/>
				<linearGradient id="SVGID_2_" gradientUnits="userSpaceOnUse" x1="1775.4562" y1="1386.1859" x2="831.5294" y2="2929.3018">
					<stop  offset="0" style="stop-color:#40447E"/>
					<stop  offset="0.9964" style="stop-color:#3C3B6B"/>
				</linearGradient>
				<path class="st2" d="M2632.41,1574.62l-2058.23-4.91c-34.64-0.08-62.76,26.77-62.76,59.98v102.49l2178.59-1.82v-98.06
					C2690,1600.51,2664.23,1574.69,2632.41,1574.62z"/>
				<linearGradient id="SVGID_3_" gradientUnits="userSpaceOnUse" x1="599.7725" y1="1649.842" x2="655.3914" y2="1649.842">
					<stop  offset="0" style="stop-color:#FF9085"/>
					<stop  offset="1" style="stop-color:#FB6FBB"/>
				</linearGradient>
				<path class="st3" d="M655.39,1649.86c0,14.72-12.44,26.65-27.79,26.65c-15.36,0-27.83-11.95-27.83-26.69
					c0-14.74,12.46-26.67,27.83-26.65C642.95,1623.19,655.39,1635.14,655.39,1649.86z"/>
			</g>
			<g>
				<polygon class="st4" points="944.2,2617.41 785.8,2620.35 785.8,1873.73 944.2,1873.15 				"/>
				<polygon class="st5" points="944.2,2617.41 785.8,2620.35 785.8,2265.87 944.2,2264.05 				"/>
				<polygon class="st4" points="1162.93,2613.35 1005.91,2616.26 1005.91,1872.92 1162.93,1872.35 				"/>
				<polygon class="st5" points="1162.93,2613.35 1005.91,2616.26 1005.91,2439.8 1162.93,2437.44 				"/>
				<polygon class="st4" points="1379.74,2609.33 1224.1,2612.22 1224.1,1872.12 1379.74,1871.55 				"/>
				<polygon class="st5" points="1379.74,2609.33 1224.1,2612.22 1224.1,2519.98 1379.74,2517.38 				"/>
				<polygon class="st4" points="1594.68,2605.34 1440.38,2608.2 1440.38,1871.33 1594.68,1870.77 				"/>
				<polygon class="st5" points="1594.68,2605.34 1440.38,2608.2 1440.38,2030.95 1594.68,2029.89 				"/>
				<polygon class="st4" points="1807.76,2601.39 1654.8,2604.23 1654.8,1870.55 1807.76,1869.99 				"/>
				<polygon class="st5" points="1807.76,2601.39 1654.8,2604.23 1654.8,2094.79 1807.76,2093.53 				"/>
				<polygon class="st4" points="2019.01,2597.47 1867.36,2600.28 1867.36,1869.77 2019.01,1869.21 				"/>
				<polygon class="st5" points="2019.01,2597.47 1867.36,2600.28 1867.36,1975.98 2019.01,1975.1 				"/>
				<polygon class="st4" points="2228.45,2593.58 2078.1,2596.37 2078.1,1868.99 2228.45,1868.44 				"/>
				<polygon class="st5" points="2228.45,2593.58 2078.1,2596.37 2078.1,2149.59 2228.45,2148.17 				"/>
				<polygon class="st4" points="2436.11,2589.73 2287.04,2592.5 2287.04,1868.23 2436.11,1867.68 				"/>
				<polygon class="st5" points="2436.11,2589.73 2287.04,2592.5 2287.04,2341.05 2436.11,2339.05 				"/>
			</g>
		</g>
		<g>
			<g>
				<g>
					<path class="st6" d="M2235.18,2999.18l-1583.79-13.5v39.94c0,10.84,6.91,20.06,16.26,21.7l447.85,78.66
						c5.31,0.93,10.7,1.18,16.07,0.74l1086.4-89.68c9.7-0.8,17.21-10.05,17.21-21.19V2999.18z"/>
					<g>
						<path class="st6" d="M1660.43,2935.16l-992.66,73.07c-17.76,1.31-32.21-12.59-32.21-31.04V2238
							c0-18.45,14.44-33.41,32.21-33.41h992.66c14.63,0,26.47,13.52,26.47,30.2v668.23
							C1686.9,2919.7,1675.07,2934.09,1660.43,2935.16z"/>
						<linearGradient id="SVGID_4_" gradientUnits="userSpaceOnUse" x1="651.3969" y1="2606.4563" x2="1702.7271" y2="2606.4563">
							<stop  offset="0" style="stop-color:#444B8C"/>
							<stop  offset="0.9964" style="stop-color:#26264F"/>
						</linearGradient>
						<path class="st7" d="M1676.26,2935.16l-992.66,73.07c-17.76,1.31-32.21-12.59-32.21-31.04V2238
							c0-18.45,14.44-33.41,32.21-33.41h992.66c14.63,0,26.47,13.52,26.47,30.2v668.23
							C1702.73,2919.7,1690.9,2934.09,1676.26,2935.16z"/>
						<linearGradient id="SVGID_5_" gradientUnits="userSpaceOnUse" x1="694.5775" y1="2599.5474" x2="1667.1737" y2="2599.5474">
							<stop  offset="0" style="stop-color:#AA80F9"/>
							<stop  offset="0.9964" style="stop-color:#6165D7"/>
						</linearGradient>
						<path class="st8" d="M1645.34,2888.05l-924.56,63.47c-14.46,0.99-26.2-10.41-26.2-25.47v-647.17
							c0-15.06,11.75-27.32,26.2-27.39l924.56-3.99c12.07-0.05,21.84,11.03,21.84,24.75v589.46
							C1667.17,2875.43,1657.41,2887.23,1645.34,2888.05z"/>
						<path class="st5" d="M1214.99,2224.81c0,6.87-5.11,12.45-11.42,12.47c-6.32,0.02-11.44-5.54-11.44-12.43
							c0-6.88,5.13-12.47,11.44-12.47C1209.88,2212.37,1214.99,2217.94,1214.99,2224.81z"/>
						<path class="st9" d="M683.6,3008.24l987.64-72.7l5.03-0.37c6.71-0.49,12.82-3.81,17.48-8.85
							c-71.07-3.89-115.22-29.11-143.69-55.17c-57.19-52.34-47.27-103.95-108.93-138.36c-76.92-42.92-137.4,11.46-195.76-42.19
							c-35.38-32.53-18.01-56.79-61.55-105.4c-48.23-53.84-79.62-35.74-128.09-84.2c-61.28-61.27-30.63-108.95-83.42-152.94
							c-64.04-53.37-133.1-3.97-194.06-55.16c-26.29-22.08-40.72-54.17-48.25-88.3H683.6c-17.76,0-32.21,14.96-32.21,33.41v739.2
							C651.4,2995.65,665.84,3009.54,683.6,3008.24z"/>
					</g>
					<linearGradient id="SVGID_6_" gradientUnits="userSpaceOnUse" x1="651.3969" y1="3010.6956" x2="2235.1829" y2="3010.6956">
						<stop  offset="0" style="stop-color:#444B8C"/>
						<stop  offset="0.9964" style="stop-color:#26264F"/>
					</linearGradient>
					<path class="st10" d="M1715.83,2931.11L651.4,3008.03l464.11,81.51c5.31,0.93,10.7,1.18,16.07,0.74l1103.61-91.1l-502.42-67.54
						C1727.14,2930.88,1721.47,2930.7,1715.83,2931.11z"/>
					<polygon class="st6" points="806.71,3008.69 1692.88,2943.7 1967.14,2980.27 1088.61,3049.74 					"/>
				</g>
			</g>
		</g>
		<g>
			<linearGradient id="SVGID_7_" gradientUnits="userSpaceOnUse" x1="864.7212" y1="1283.9905" x2="3043.3086" y2="1283.9905">
				<stop  offset="0" style="stop-color:#AA80F9"/>
				<stop  offset="0.9964" style="stop-color:#6165D7"/>
			</linearGradient>
			<path class="st11" d="M864.72,747.75v1000.21c0,33.21,28.12,60.29,62.76,60.49l2058.23,11.79c31.83,0.18,57.6-25.43,57.6-57.2
				v-957L864.72,747.75z"/>
			<linearGradient id="SVGID_8_" gradientUnits="userSpaceOnUse" x1="864.7212" y1="731.3586" x2="3043.3086" y2="731.3586">
				<stop  offset="0" style="stop-color:#40447E"/>
				<stop  offset="0.9964" style="stop-color:#3C3B6B"/>
			</linearGradient>
			<path class="st12" d="M2985.71,682.86L927.48,622.61c-34.64-1.01-62.76,25.08-62.76,58.29v102.49l2178.59,56.74v-98.06
				C3043.31,710.3,3017.54,683.79,2985.71,682.86z"/>
			<g>
				<g>
					<g>
						<path class="st5" d="M2503.09,1294.85l114.78-385c173.13,58.14,297.87,217.54,298.8,402.64L2503.09,1294.85z"/>
					</g>
					<g class="st13">
						<path class="st5" d="M2810.12,1335.15c-6.4,88.08-50.08,165.73-115.97,218.44l-179.96-231.28L2810.12,1335.15z"/>
						<path class="st5" d="M2477.39,1281.17c-69.67-65.6-153.86-145.03-220.89-208.57c59.46-53.25,139.72-84.9,227.77-82.94
							c26.66,0.6,52.56,4.24,77.33,10.58L2477.39,1281.17z"/>
						<path class="st5" d="M2462.87,1305.22l-253.29,175.64c-35.54-51.31-56.3-112.84-56.3-178.75
							c0-81.28,31.57-154.87,83.48-210.21c18.58,17.6,39.23,37.12,61.85,58.49C2367.06,1215.04,2435.73,1279.68,2462.87,1305.22z"/>
						<path class="st5" d="M2470.19,1333.94l-4.88,290.46c-96.25-6.21-181.76-52.28-238.85-121.28L2470.19,1333.94z"/>
						<path class="st5" d="M2498.17,1346.66l173.78,223.18c-50.67,33.87-112.02,54.1-178.46,55.23L2498.17,1346.66z"/>
					</g>
				</g>
				<g>
					<polygon class="st4" points="2040.06,1113.75 995,1092.52 995,994.67 2040.06,1017.96 					"/>
					<polygon class="st4" points="2040.06,1287.06 995,1269.58 995,1171.73 2040.06,1191.28 					"/>
					<polygon class="st4" points="2040.06,1460.38 995,1446.64 995,1348.79 2040.06,1364.6 					"/>
					<polygon class="st4" points="2040.06,1633.7 995,1623.7 995,1525.85 2040.06,1537.92 					"/>
				</g>
			</g>
			<linearGradient id="SVGID_9_" gradientUnits="userSpaceOnUse" x1="953.0774" y1="704.1857" x2="1008.697" y2="704.1857">
				<stop  offset="0" style="stop-color:#AA80F9"/>
				<stop  offset="0.9964" style="stop-color:#6165D7"/>
			</linearGradient>
			<path class="st14" d="M1008.7,704.96c0,14.72-12.44,26.32-27.79,25.9c-15.36-0.42-27.83-12.7-27.83-27.44
				c0-14.74,12.46-26.33,27.83-25.9C996.26,677.95,1008.7,690.23,1008.7,704.96z"/>
		</g>
		<g>
			
				<linearGradient id="SVGID_10_" gradientUnits="userSpaceOnUse" x1="2799.9761" y1="3047.3997" x2="2822.5144" y2="3334.2473" gradientTransform="matrix(1 0 0 1 -626.2627 0)">
				<stop  offset="3.597000e-03" style="stop-color:#26264F"/>
				<stop  offset="1" style="stop-color:#444B8C"/>
			</linearGradient>
			<path class="st15" d="M2217.67,3190.46c0,0-90.72,41.23-92.21,47.82c-1.48,6.58,58.34-2.21,82.77-1.26
				c24.42,0.95,44.51-6.27,42.3-16.61c-2.21-10.35-10.76-36.36-10.76-36.36L2217.67,3190.46z"/>
			
				<linearGradient id="SVGID_11_" gradientUnits="userSpaceOnUse" x1="2858.1606" y1="3207.0981" x2="2854.0632" y2="2910.0132" gradientTransform="matrix(1 0 0 1 -626.2627 0)">
				<stop  offset="0" style="stop-color:#AB316D"/>
				<stop  offset="1" style="stop-color:#792D3D"/>
			</linearGradient>
			<path class="st16" d="M2214.35,3156.99l5.52,40.85c0,0,14.36,5.11,24.01-0.93l4.12-44.8L2214.35,3156.99z"/>
			
				<linearGradient id="SVGID_12_" gradientUnits="userSpaceOnUse" x1="3225.8911" y1="3013.9375" x2="3248.429" y2="3300.7815" gradientTransform="matrix(1 0 0 1 -626.2627 0)">
				<stop  offset="3.597000e-03" style="stop-color:#26264F"/>
				<stop  offset="1" style="stop-color:#444B8C"/>
			</linearGradient>
			<path class="st17" d="M2641.6,3157.97l10.55,16.94c2.95,4.74,3.83,10.44,2.42,15.84c-3.69,14.09-11.06,41.54-14.27,48.7
				c-4.38,9.75-63.09,15.54-63.09,15.54s-5.24-7.37,6.95-16.27c12.19-8.9,20.02-10.3,24.33-23.43c4.3-13.13,7.17-50.27,7.17-50.27
				L2641.6,3157.97z"/>
			
				<linearGradient id="SVGID_13_" gradientUnits="userSpaceOnUse" x1="3248.4922" y1="3201.7139" x2="3244.3948" y2="2904.6243" gradientTransform="matrix(1 0 0 1 -626.2627 0)">
				<stop  offset="0" style="stop-color:#AB316D"/>
				<stop  offset="1" style="stop-color:#792D3D"/>
			</linearGradient>
			<path class="st18" d="M2597.68,3114.92c3.85,3.07,22.71,60.31,22.71,60.31s6.1,7.81,17.7-3.71c11.59-11.52,5.25-5.17,5.25-5.17
				l-2.17-56.29L2597.68,3114.92z"/>
			<linearGradient id="SVGID_14_" gradientUnits="userSpaceOnUse" x1="2160.9968" y1="2725.824" x2="2380.655" y2="2725.824">
				<stop  offset="0" style="stop-color:#311944"/>
				<stop  offset="1" style="stop-color:#6B3976"/>
			</linearGradient>
			<path class="st19" d="M2164.43,2336.34c-4.79,121.85-4.98,254.23,2.03,395.65c7.89,159.25,23.76,306.44,43.75,439.87
				c7.43,0.24,15.24,0.28,23.4,0.05c5.51-0.15,10.85-0.42,16-0.78c10.37-27.67,22.64-64.05,33.62-107.51
				c11.54-45.7,18.51-86.69,23.47-125.88c17.47-138.01-3-150.05,11.18-252.33c12.56-90.58,30.41-94.12,51.38-222.73
				c22.74-139.54,5.81-160.48-2.42-168.04C2331.78,2262.46,2249.44,2284.38,2164.43,2336.34z"/>
			<linearGradient id="SVGID_15_" gradientUnits="userSpaceOnUse" x1="2176.1858" y1="2725.8333" x2="2380.6545" y2="2725.8333">
				<stop  offset="3.597000e-03" style="stop-color:#26264F"/>
				<stop  offset="1" style="stop-color:#444B8C"/>
			</linearGradient>
			<path class="st20" d="M2366.83,2294.65c-33.43-30.71-109.89-12.12-190.65,34.75c92.9,100.37,103.03,165.48,91.89,207.73
				c-12.59,47.75-50.86,61.5-50.71,113.71c0.18,64.16,58.09,81.16,56.86,149.06c-0.81,44.9-26.26,44.43-32.27,99.88
				c-7.11,65.61,26.13,88.22,15.37,136.76c-4.63,20.89-17.85,48.17-55.51,76.29c2.71,19.93,5.5,39.67,8.4,59.03
				c7.43,0.23,15.24,0.28,23.4,0.04c5.51-0.15,10.85-0.42,16-0.77c10.37-27.67,22.64-64.05,33.62-107.51
				c11.54-45.7,18.51-86.69,23.47-125.88c17.47-138.01-3-150.05,11.18-252.33c12.56-90.58,30.41-94.12,51.38-222.73
				C2392,2323.15,2375.07,2302.21,2366.83,2294.65z"/>
			<linearGradient id="SVGID_16_" gradientUnits="userSpaceOnUse" x1="2221.9788" y1="2704.1714" x2="2664.1748" y2="2704.1714">
				<stop  offset="0" style="stop-color:#311944"/>
				<stop  offset="1" style="stop-color:#6B3976"/>
			</linearGradient>
			<path class="st21" d="M2221.98,2334.3c79.99,117.05,166.27,262.71,243.43,437.07c58.31,131.76,100.6,255.48,131.65,365.73
				c4.2,1.95,14.11,5.83,26.78,4.15c17.27-2.28,27.63-13.31,30.33-16.39c12.64-79.04,11.24-145.98,6.95-194.29
				c-2.75-30.93-7.61-82.44-27.32-146.03c-22.08-71.23-37.27-75.23-66.08-150.59c-29.9-78.22-22.66-97.74-51.3-195.63
				c-11.76-40.21-31.46-100.05-63.95-171.63C2375.64,2289.22,2298.81,2311.76,2221.98,2334.3z"/>
			
				<linearGradient id="SVGID_17_" gradientUnits="userSpaceOnUse" x1="-1537.6575" y1="1429.6786" x2="-1658.9269" y2="1793.488" gradientTransform="matrix(-0.9998 0.0218 0.0218 0.9998 210.2509 0.1062)">
				<stop  offset="0" style="stop-color:#AB316D"/>
				<stop  offset="1" style="stop-color:#792D3D"/>
			</linearGradient>
			<path class="st22" d="M1843.62,1501.14c0,0-15.52-18.58-25.41-32.42c-9.89-13.84-55.5-52.34-55.5-52.34s-3.27,6.34,6.58,16.15
				c9.85,9.81,30.5,26.55,26,33.92c-4.5,7.37-17.49,14.06-7.72,27.58c9.77,13.52,26.03,3.79,34.69,14.61
				c8.66,10.82,17.54,22.64,17.54,22.64L1843.62,1501.14z"/>
			
				<linearGradient id="SVGID_18_" gradientUnits="userSpaceOnUse" x1="2042.1147" y1="1839.1514" x2="2605.9766" y2="4480.3955" gradientTransform="matrix(0.9998 -0.0218 0.0218 0.9998 31.9022 3.95)">
				<stop  offset="0" style="stop-color:#FFC444"/>
				<stop  offset="0.9964" style="stop-color:#F36F56"/>
			</linearGradient>
			<path class="st23" d="M1845.8,1481.62c-10.36,12.99-20.71,25.99-31.07,38.98c13.24,57.29,41.47,143.63,107.11,227.49
				c69.57,88.89,217.95,222.02,310.33,178.37c56.3-26.6,132.31-117.88,105-161.89c-26.26-42.31-139.89-22.31-217.93-39.94
				C2042.74,1707.36,1943.45,1651.68,1845.8,1481.62z"/>
			
				<linearGradient id="SVGID_19_" gradientUnits="userSpaceOnUse" x1="2346.812" y1="2029.1073" x2="2517.603" y2="2029.1073" gradientTransform="matrix(0.9998 -0.0218 0.0218 0.9998 31.9022 3.95)">
				<stop  offset="0" style="stop-color:#FFC444"/>
				<stop  offset="0.9964" style="stop-color:#F36F56"/>
			</linearGradient>
			<path class="st24" d="M2559.04,1819.53c0,0,60.53,206.01,23.03,285.28c-37.5,79.27-157.07-7.78-157.07-7.78L2559.04,1819.53z"/>
			
				<linearGradient id="SVGID_20_" gradientUnits="userSpaceOnUse" x1="2335.6079" y1="2029.1072" x2="2506.3987" y2="2029.1072" gradientTransform="matrix(0.9998 -0.0218 0.0218 0.9998 31.9022 3.95)">
				<stop  offset="0" style="stop-color:#FCB148"/>
				<stop  offset="0.0521" style="stop-color:#FDBA46"/>
				<stop  offset="0.1424" style="stop-color:#FFC244"/>
				<stop  offset="0.3183" style="stop-color:#FFC444"/>
				<stop  offset="0.4849" style="stop-color:#FDB946"/>
				<stop  offset="0.7754" style="stop-color:#F99C4D"/>
				<stop  offset="0.8658" style="stop-color:#F8924F"/>
				<stop  offset="1" style="stop-color:#F8924F"/>
			</linearGradient>
			<path class="st25" d="M2547.84,1819.77c0,0,60.53,206.01,23.03,285.28c-37.5,79.27-157.07-7.78-157.07-7.78L2547.84,1819.77z"/>
			
				<linearGradient id="SVGID_21_" gradientUnits="userSpaceOnUse" x1="2237.6912" y1="1797.3993" x2="2801.5527" y2="4438.6421" gradientTransform="matrix(0.9998 -0.0218 0.0218 0.9998 31.9022 3.95)">
				<stop  offset="0" style="stop-color:#FFC444"/>
				<stop  offset="0.9964" style="stop-color:#F36F56"/>
			</linearGradient>
			<path class="st26" d="M2370.82,1743.35c-77.75-1.41-137.63,1.12-170.74,35.68c-34.96,36.5,2.04,76.04-3.69,169.64
				c-8.76,143.31-99.16,180.25-102.85,325.52c-1.25,48.95,7.9,88.74,14.85,112.67c20.55,24.48,54.06,58.92,103.02,87.27
				c71.25,41.25,111.87,32.9,213.46,58.34c166.18,41.61,182.05,95.13,263.66,79.63c82.48-15.67,153.59-86.92,143.99-124.98
				c-5.75-22.8-38.98-15.58-78.17-49.69c-50.5-43.96-32.34-87.36-71.05-134.94c-55.59-68.33-130.01-24.2-177.4-83.44
				c-47.94-59.93-32.07-180.42,5.8-246.74c24.73-43.32,34.63-93.66,55.49-138.97c1.73-3.76,3.71-9.92,2.61-17.53
				c-4.18-29.12-53.2-43.89-90.31-54.71C2422.89,1744.61,2377.21,1743.46,2370.82,1743.35z"/>
			
				<linearGradient id="SVGID_22_" gradientUnits="userSpaceOnUse" x1="993.8516" y1="1723.3979" x2="1061.3069" y2="1830.6134" gradientTransform="matrix(0.9998 -0.0218 0.0218 0.9998 1281.1685 -23.2851)">
				<stop  offset="0" style="stop-color:#FF9085"/>
				<stop  offset="1" style="stop-color:#FB6FBB"/>
			</linearGradient>
			<path class="st27" d="M2295.13,1741.79l15.22-5.05c0,0,4.46,20.66,53.78,22.17c27.34-0.6,44.69-16.3,44.69-16.3l10.63,7.4
				c0,0-22.34,29.19-58.88,29.26C2313.4,1779.36,2295.13,1741.79,2295.13,1741.79z"/>
			<g>
				
					<linearGradient id="SVGID_23_" gradientUnits="userSpaceOnUse" x1="1814.8114" y1="2433.0146" x2="1735.851" y2="2560.7446" gradientTransform="matrix(0.9519 -0.3063 0.3063 0.9519 -104.9425 -119.7459)">
					<stop  offset="0" style="stop-color:#AB316D"/>
					<stop  offset="1" style="stop-color:#792D3D"/>
				</linearGradient>
				<path class="st28" d="M2307.61,1675.1c-4.17-22.6,8.51-42.01,11.29-46.19c11.66-17.49,14.44-19.77,19.5-22.53l6.99-3.48
					c0,0,0.4-0.12,0.81-0.22c4.39-1.12,18.9-0.24,21.77,0.65c9.18,2.86,15.67,41.92,7.9,95.61c0.37,4.21,0.74,8.43,1.11,12.64
					c20.91-2.89,26.96-0.9,28.03,1.9c2.33,6.07-12.24,41.49-32.15,48.47c-24.97,8.74-59.76-14.06-61.85-22.31
					c-0.85-3.34-0.7-0.47,16.31-10.32c1.57-4.94,6.43-18.31,7.99-23.24C2331.71,1703.77,2310.69,1691.74,2307.61,1675.1z"/>
				
					<linearGradient id="SVGID_24_" gradientUnits="userSpaceOnUse" x1="1042.3108" y1="2079.6648" x2="970.5629" y2="2195.7275" gradientTransform="matrix(0.8526 -0.5224 0.5224 0.8526 362.7311 402.2268)">
					<stop  offset="0" style="stop-color:#AB316D"/>
					<stop  offset="1" style="stop-color:#792D3D"/>
				</linearGradient>
				<path class="st29" d="M2336.11,1656.91c4.61-5.26,11.33,0.69,10.7,7.98c-0.62,7.29-8.37,14.21-15.09,12.15
					C2325.01,1674.98,2329.9,1663.98,2336.11,1656.91z"/>
				<path class="st6" d="M3076.26,1418.59c-101.42-57.38-269.12,21.28-345.05,118.01c-35.28,44.95-46.84,88.35-99.14,108.51
					c-39.75,15.33-109.07,20.83-157.11-12.11c-6.05-4.15-30.61-21.83-65.68-42.79c-15.46-9.24-30.61-17.71-48.93-14.83
					c-4.65,0.73-20.17,3.08-26.85,15.74c-5.42,10.26-3.04,24.29,2.41,33.21c3.26,5.33,5.26,5.36,6.22,9.23
					c2.7,10.87-15.18,21.73-12.38,26.74c2,3.58,11.63-1.07,14.91,3.18c3.6,4.65-6.02,12.74-6.51,27.51
					c-6.99,8.83-7.84,25.49-3.4,45.98c6.54,30.12,17.1,52.91,28.39,69c54.33,77.46,93.19,132.87,150.37,152.4
					c75.7,25.85,117.16-33.85,270.34-90.49c209.75-77.54,285.98-22.52,346.54-96.44
					C3206.01,1679.14,3181.56,1478.16,3076.26,1418.59z"/>
			</g>
			<g class="st30">
				
					<linearGradient id="SVGID_25_" gradientUnits="userSpaceOnUse" x1="2146.3655" y1="1710.4393" x2="2353.7915" y2="2570.4622" gradientTransform="matrix(0.9998 -0.0218 0.0218 0.9998 31.9022 3.95)">
					<stop  offset="0" style="stop-color:#FCB148"/>
					<stop  offset="0.0521" style="stop-color:#FDBA46"/>
					<stop  offset="0.1424" style="stop-color:#FFC244"/>
					<stop  offset="0.3183" style="stop-color:#FFC444"/>
					<stop  offset="0.4849" style="stop-color:#FDB946"/>
					<stop  offset="0.7754" style="stop-color:#F99C4D"/>
					<stop  offset="0.8658" style="stop-color:#F8924F"/>
					<stop  offset="1" style="stop-color:#F8924F"/>
				</linearGradient>
				<path class="st31" d="M2630.14,2489.09c-78.19-51.95-148.97,7.47-204.24-38.3c-45.52-37.69-8.19-86.84-57.44-153.18
					c-54-72.75-128.94-54.14-146.8-108.5c-18.46-56.19,55.59-94.32,57.44-172.33c0.94-39.81-16.93-91.67-88.34-153.86
					c3.85,22.69,7.8,50.35,5.63,85.75c-8.76,143.31-99.16,180.25-102.85,325.52c-1.25,48.95,7.9,88.74,14.85,112.67
					c20.55,24.48,54.06,58.92,103.02,87.27c71.25,41.25,111.87,32.9,213.46,58.34c166.18,41.61,182.05,95.13,263.66,79.63
					c23.77-4.52,46.58-13.66,66.8-25.29c-23.77-3.7-41.49-11.78-54.99-21.13C2664.64,2540.96,2670.92,2516.18,2630.14,2489.09z"/>
			</g>
		</g>
		<g>
			<linearGradient id="SVGID_26_" gradientUnits="userSpaceOnUse" x1="987.1028" y1="1160.5085" x2="327.9579" y2="1372.048">
				<stop  offset="0" style="stop-color:#FCB148"/>
				<stop  offset="0.0521" style="stop-color:#FDBA46"/>
				<stop  offset="0.1424" style="stop-color:#FFC244"/>
				<stop  offset="0.3183" style="stop-color:#FFC444"/>
				<stop  offset="0.4849" style="stop-color:#FDB946"/>
				<stop  offset="0.7754" style="stop-color:#F99C4D"/>
				<stop  offset="0.8658" style="stop-color:#F8924F"/>
				<stop  offset="1" style="stop-color:#F8924F"/>
			</linearGradient>
			<path class="st32" d="M1745.92,1136.59c0,305.79-239.11,546.33-544.71,536.95c-318.04-9.77-585.53-284.44-585.53-613.14
				c0-328.7,267.49-567.31,585.53-534.19C1506.81,558.02,1745.92,830.81,1745.92,1136.59z"/>
			<linearGradient id="SVGID_27_" gradientUnits="userSpaceOnUse" x1="1520.3126" y1="504.396" x2="931.8686" y2="1802.6132">
				<stop  offset="0" style="stop-color:#FFDB44"/>
				<stop  offset="1" style="stop-color:#FEEF06"/>
			</linearGradient>
			<path class="st33" d="M1828.5,1110.23c0,305.79-239.11,546.33-544.71,536.95c-318.04-9.77-585.53-284.44-585.53-613.14
				s267.49-567.31,585.53-534.19C1589.39,531.65,1828.5,804.44,1828.5,1110.23z"/>
			<linearGradient id="SVGID_28_" gradientUnits="userSpaceOnUse" x1="1412.0681" y1="1875.171" x2="1298.5265" y2="1254.8978">
				<stop  offset="0" style="stop-color:#FCB148"/>
				<stop  offset="0.0521" style="stop-color:#FDBA46"/>
				<stop  offset="0.1424" style="stop-color:#FFC244"/>
				<stop  offset="0.3183" style="stop-color:#FFC444"/>
				<stop  offset="0.4849" style="stop-color:#FDB946"/>
				<stop  offset="0.7754" style="stop-color:#F99C4D"/>
				<stop  offset="0.8658" style="stop-color:#F8924F"/>
				<stop  offset="1" style="stop-color:#F8924F"/>
			</linearGradient>
			<path class="st34" d="M1804.51,1108.61c0,292.32-228.78,521.88-520.72,512.43c-303.27-9.82-557.9-271.96-557.9-585.15
				c0-313.19,254.63-541,557.9-509.92C1575.73,555.88,1804.51,816.29,1804.51,1108.61z"/>
			<linearGradient id="SVGID_29_" gradientUnits="userSpaceOnUse" x1="1171.3385" y1="871.1904" x2="1639.2582" y2="1864.4948">
				<stop  offset="0" style="stop-color:#FCB148"/>
				<stop  offset="0.0521" style="stop-color:#FDBA46"/>
				<stop  offset="0.1424" style="stop-color:#FFC244"/>
				<stop  offset="0.3183" style="stop-color:#FFC444"/>
				<stop  offset="0.4849" style="stop-color:#FDB946"/>
				<stop  offset="0.7754" style="stop-color:#F99C4D"/>
				<stop  offset="0.8658" style="stop-color:#F8924F"/>
				<stop  offset="1" style="stop-color:#F8924F"/>
			</linearGradient>
			<path class="st35" d="M1787.33,1107.45c0,282.68-221.37,504.4-503.54,494.92c-292.74-9.83-538.23-263.01-538.23-565.16
				c0-302.15,245.49-522.23,538.23-492.59C1565.96,573.2,1787.33,824.77,1787.33,1107.45z"/>
			<linearGradient id="SVGID_30_" gradientUnits="userSpaceOnUse" x1="1076.3346" y1="1073.6869" x2="1503.7512" y2="1073.6869">
				<stop  offset="0" style="stop-color:#FFDB44"/>
				<stop  offset="1" style="stop-color:#FEEF06"/>
			</linearGradient>
			<path class="st36" d="M1480.56,1109.41c-15.55-18.56-39.69-32.05-72.61-40.47c15.13-5.76,28.02-12.58,38.72-20.46
				c10.66-7.86,19.36-16.47,26.13-25.86c6.75-9.37,11.69-19.45,14.84-30.25c3.14-10.79,4.71-22.02,4.71-33.68
				c0-21.42-3.42-40.9-10.27-58.46c-6.86-17.6-17.86-32.73-33.03-45.42c-15.24-12.74-35.02-22.93-59.42-30.58
				c-8.13-2.54-16.9-4.71-26.22-6.56V732.4l-65.13-3.27v81.44l-55.06-2.11v-82.09l-67.47-3.39v82.89l-72.51-2.78l-26.9-1.03v45.42
				l26.9,0.86v460.08l-26.9,0.9v45.42l26.9-1.07l72.51-2.88v73.64l67.47-3.39v-72.93l55.06-2.19v72.34l65.13-3.27v-75.42
				c11.98-2.48,23.28-5.69,33.83-9.72c23.43-8.95,42.99-20.82,58.77-35.61c15.7-14.72,27.57-31.71,35.65-50.98
				c8.06-19.22,12.08-39.87,12.08-61.97C1503.75,1151.82,1496.04,1127.88,1480.56,1109.41z M1376.79,971.21
				c0,12.84-1.91,23.47-5.74,31.9c-3.84,8.45-9.42,15.07-16.76,19.87c-7.36,4.81-16.32,8.16-26.89,10.04
				c-10.6,1.9-22.54,2.8-35.83,2.73l-63.34-0.35V901.78l71.18,1.77c13.49,0.33,25.11,1.72,34.87,4.15
				c9.73,2.43,17.74,6.26,24.04,11.51c6.29,5.24,10.94,12.07,13.96,20.49C1375.28,948.12,1376.79,958.62,1376.79,971.21z
				 M1386.86,1205.66c-2.08,8.27-5.9,15.72-11.46,22.38c-5.57,6.67-13.31,12.2-23.22,16.57c-9.94,4.39-22.79,6.79-38.58,7.2
				l-85.38,2.22v-134.74l84.67-0.56c15.08-0.1,27.53,1.28,37.36,4.13c9.8,2.84,17.66,6.91,23.58,12.18
				c5.91,5.27,10.08,11.76,12.51,19.47c2.43,7.71,3.64,16.39,3.64,26.06C1389.98,1189.04,1388.94,1197.4,1386.86,1205.66z"/>
			<linearGradient id="SVGID_31_" gradientUnits="userSpaceOnUse" x1="1033.6781" y1="935.4722" x2="1500.6537" y2="1926.7722">
				<stop  offset="0" style="stop-color:#FCB148"/>
				<stop  offset="0.0521" style="stop-color:#FDBA46"/>
				<stop  offset="0.1424" style="stop-color:#FFC244"/>
				<stop  offset="0.3183" style="stop-color:#FFC444"/>
				<stop  offset="0.4849" style="stop-color:#FDB946"/>
				<stop  offset="0.7754" style="stop-color:#F99C4D"/>
				<stop  offset="0.8658" style="stop-color:#F8924F"/>
				<stop  offset="1" style="stop-color:#F8924F"/>
			</linearGradient>
			<path class="st37" d="M1192.67,1176.67c17.01-168.03,171.44-239.16,151.29-393.73c-12.42-95.26-84.62-175.55-165.17-238.23
				c-244.31,25.62-433.22,227.92-433.22,492.5c0,302.15,245.49,555.33,538.23,565.16c28.42,0.95,56.18-0.52,83.18-4.06
				C1250.7,1482.62,1178.05,1321.03,1192.67,1176.67z"/>
		</g>
	</g>
</g>
</svg>
